<?xml version="1.0" encoding="UTF-8" standalone="no"?><!DOCTYPE svg PUBLIC "-//W3C//DTD SVG 1.1//EN" "http://www.w3.org/Graphics/SVG/1.1/DTD/svg11.dtd"><svg width="100%" height="100%" viewBox="0 0 192 278" version="1.1" xmlns="http://www.w3.org/2000/svg" xmlns:xlink="http://www.w3.org/1999/xlink" xml:space="preserve" xmlns:serif="http://www.serif.com/" style="fill-rule:evenodd;clip-rule:evenodd;stroke-linecap:round;stroke-linejoin:round;stroke-miterlimit:10;"><g><path id="POLYLINE_584_" d="M140.304,195.55c-1.207,-0.628 -2.418,-1.252 -3.652,-1.827c-1.16,-0.541 -2.318,-1.023 -3.401,-1.711c-1.051,-0.668 -1.999,-1.462 -2.904,-2.311c-0.866,-0.811 -1.903,-1.628 -2.561,-2.628c-0.59,-0.897 -0.361,-1.983 0.371,-2.725" style="fill:none;fill-rule:nonzero;stroke:#3a54f5;stroke-width:1.29px;"/><path id="POLYLINE_1069_" d="M77.066,265.271c-0.971,0.069 -2.017,0.402 -2.974,0.076c-1.085,-0.37 -1.705,-1.55 -2.157,-2.519c-0.731,-1.566 -1.454,-3.371 -1.489,-5.118c-0.015,-0.788 0.166,-1.527 0.548,-2.221c0.498,-0.906 1.254,-1.661 1.707,-2.591c0.365,-0.749 0.261,-1.489 0.087,-2.272c-0.222,-0.995 -0.363,-1.981 -0.32,-3.003c0.089,-2.12 0.955,-4.112 1.665,-6.084c0.337,-0.939 0.681,-1.888 1.343,-2.66c0.728,-0.849 1.747,-1.369 2.795,-1.731c1.644,-0.568 4.044,-1.099 5.676,-0.219c0.354,0.191 0.766,0.707 1.18,0.726c0.409,0.019 0.814,-0.56 1.115,-0.768c0.646,-0.447 1.445,-0.528 2.213,-0.533c0.957,-0.006 1.914,0.118 2.857,0.264c1.058,0.163 2.139,0.302 3.174,0.574c2.312,0.606 3.186,2.695 4.014,4.698c0.811,1.963 1.483,4.164 2.82,5.86c0.703,0.891 1.7,1.447 2.444,2.286c0.666,0.751 0.587,1.688 0.392,2.597c-0.36,1.673 -1.111,3.36 -0.834,5.104c0.223,1.402 1.17,2.17 2.437,2.67c0.716,0.283 2.207,0.574 2.285,1.528c0.058,0.719 -0.519,1.457 -0.942,1.983c-0.655,0.816 -1.388,1.546 -1.877,2.48c-0.47,0.897 -0.768,1.892 -1.348,2.732c-0.76,1.101 -1.882,1.103 -3.099,0.945c-0.862,-0.111 -1.68,-0.208 -2.542,-0.045c-0.931,0.175 -1.825,0.489 -2.771,0.602c-2.106,0.252 -4.207,-0.336 -6.264,-0.694c-2.113,-0.368 -4.278,-0.196 -6.385,-0.607c-0.766,-0.15 -1.58,-0.363 -2.216,-0.83c-0.77,-0.565 -0.96,-1.444 -1.371,-2.246c-0.431,-0.84 -1.261,-1.046 -2.163,-0.984Z" style="fill:none;fill-rule:nonzero;stroke:#3a54f5;stroke-width:1.29px;"/><path id="POLYLINE_1070_" d="M71.151,260.871c-1.466,-1.159 -2.488,-2.497 -3.21,-4.215c-0.694,-1.649 -1.147,-3.525 -0.813,-5.311c0.315,-1.682 1.275,-3.179 2.364,-4.476c0.604,-0.719 1.327,-1.369 1.727,-2.229c0.313,-0.676 0.459,-1.424 0.603,-2.149c0.217,-1.091 0.374,-2.212 0.71,-3.276c0.291,-0.922 0.846,-1.544 1.5,-2.244" style="fill:none;fill-rule:nonzero;stroke:#3a54f5;stroke-width:1.29px;"/><path id="POLYLINE_1071_" d="M74.533,240.473c-1.231,-1.931 -0.429,-3.987 0.292,-5.948c0.864,-2.351 1.912,-4.699 2.371,-7.172c0.371,-1.997 0.399,-4.221 -0.172,-6.183c-0.31,-1.067 -0.824,-2.063 -1.043,-3.157c-0.206,-1.025 -0.173,-2.086 -0.084,-3.122c0.052,-0.605 0.125,-1.21 0.215,-1.811c0.051,-0.334 0.089,-1.189 0.543,-1.254c0.458,-0.066 0.776,0.633 0.858,0.96c0.089,0.35 0.088,0.722 0.072,1.08c-0.011,0.25 -0.042,0.497 -0.06,0.746c0.237,-0.315 0.295,-0.883 0.42,-1.26c0.136,-0.409 0.284,-0.816 0.457,-1.211c0.26,-0.595 0.647,-1.501 1.257,-1.827c0.712,-0.379 0.989,0.949 1.267,1.357c0.606,0.891 1.113,-0.458 1.513,-0.886c0.416,-0.445 1.154,-0.614 1.606,-0.095c0.531,0.611 -0.321,1.606 -0.628,2.131c-0.783,1.334 -1.433,2.807 -1.532,4.364c-0.044,0.676 0.012,1.399 0.335,2.009c0.091,0.172 0.409,0.748 0.668,0.581c0.213,-0.137 0.112,-0.913 0.112,-1.127c0,-0.717 -0.02,-1.494 0.331,-2.146c0.303,-0.563 0.938,-0.898 1.508,-0.457c0.626,0.484 0.155,1.335 0.031,1.95c-0.142,0.701 -0.048,1.409 0.046,2.11c0.125,0.93 0.224,1.757 -0.185,2.645c-0.387,0.842 -0.867,1.644 -1.29,2.469c-0.798,1.556 -1.649,3.173 -2.065,4.879c-0.398,1.635 -0.321,3.44 -0.18,5.103c0.037,0.445 0.091,0.888 0.167,1.328" style="fill:none;fill-rule:nonzero;stroke:#3a54f5;stroke-width:1.29px;"/><path id="POLYLINE_1072_" d="M96.681,238.482c1.084,-0.012 2.178,0.196 3.196,0.555c1.382,0.488 2.439,1.328 3.395,2.417c0.444,0.506 0.856,1.04 1.206,1.614" style="fill:none;fill-rule:nonzero;stroke:#3a54f5;stroke-width:1.29px;"/><path id="POLYLINE_1073_" d="M113.22,245.481c-0.429,0.761 -1.861,0.874 -2.613,1.037c-1.155,0.249 -2.482,0.564 -3.606,0.034c-2.103,-0.994 -2.753,-3.963 -3.198,-5.992c-0.274,-1.254 -0.52,-2.518 -0.918,-3.741c-0.387,-1.189 -0.883,-2.341 -1.353,-3.499c-0.185,-0.455 -0.362,-0.913 -0.504,-1.382c-0.186,-0.614 -0.32,-1.247 -0.707,-1.776c-0.713,-0.976 -1.53,-1.563 -1.691,-2.828c-0.151,-1.191 0.035,-2.397 -0.134,-3.588c-0.149,-1.045 -0.575,-2.078 -0.549,-3.142c0.017,-0.702 0.251,-1.373 0.73,-1.895c0.205,-0.223 0.427,-0.426 0.621,-0.659c0.153,-0.186 0.33,-0.503 0.568,-0.6c0.712,-0.291 1.483,1.9 1.732,2.319c0.543,0.914 1.528,1.532 1.844,2.571c0.352,1.156 0.263,2.453 0.283,3.645c0.02,1.117 0.074,2.246 0.366,3.332c0.245,0.912 0.67,1.76 1.148,2.574c1.328,2.262 2.794,4.452 4.195,6.67c0.782,1.238 1.563,2.476 2.345,3.713c0.457,0.725 0.989,1.431 1.33,2.217c0.13,0.3 0.263,0.672 0.111,0.99Z" style="fill:none;fill-rule:nonzero;stroke:#3a54f5;stroke-width:1.29px;"/><path id="POLYLINE_1074_" d="M112.779,243.863c1.563,0.056 2.886,0.775 3.671,2.136c0.9,1.561 1.305,3.46 1.514,5.23c0.21,1.777 0.229,3.84 -0.737,5.425c-0.538,0.882 -1.444,1.407 -2.241,2.03c-0.861,0.673 -1.676,1.403 -2.514,2.102c-1.731,1.444 -3.551,2.523 -5.62,3.431" style="fill:none;fill-rule:nonzero;stroke:#3a54f5;stroke-width:1.29px;"/><path id="POLYLINE_1075_" d="M107.927,261.551c1.11,-0.559 2.081,-1.159 2.827,-2.169c0.416,-0.563 0.771,-1.168 1.207,-1.717c0.437,-0.55 0.96,-0.909 1.564,-1.262c1.291,-0.755 1.679,-1.948 1.833,-3.371c0.135,-1.239 0.1,-2.511 -0.072,-3.745c-0.092,-0.657 -0.225,-1.321 -0.469,-1.942c-0.322,-0.818 -0.908,-1.344 -1.598,-1.865" style="fill:none;fill-rule:nonzero;stroke:#3a54f5;stroke-width:1.29px;"/><path id="POLYLINE_1076_" d="M82.43,214.831l0.537,4.753" style="fill:none;fill-rule:nonzero;stroke:#3a54f5;stroke-width:1.29px;"/><path id="POLYLINE_1077_" d="M82.24,227.713c0.435,0.459 0.951,0.434 1.53,0.438c1.141,0.009 2.283,0.016 3.423,0.024c3.093,0.022 6.186,0.043 9.279,0.065c0.774,0.005 1.548,0.01 2.322,0.016" style="fill:none;fill-rule:nonzero;stroke:#3a54f5;stroke-width:1.29px;"/><path id="POLYLINE_1078_" d="M99.117,218.258c-0.281,-2.488 -0.562,-4.975 -0.843,-7.464c-0.12,-1.059 -0.219,-2.123 -0.359,-3.18c-0.089,-0.673 -0.531,-1.181 -1.242,-1.234c-0.651,-0.048 -1.321,-0.009 -1.974,-0.013c-1.506,-0.011 -3.012,-0.022 -4.518,-0.032c-2.843,-0.019 -5.686,-0.039 -8.529,-0.058c-0.649,-0.005 -1.311,-0.037 -1.712,0.585c-0.254,0.395 -0.196,0.8 -0.147,1.239c0.08,0.715 0.16,1.43 0.241,2.145" style="fill:none;fill-rule:nonzero;stroke:#3a54f5;stroke-width:1.29px;"/><path id="POLYLINE_1079_" d="M134.989,185.314c1.763,1.901 3.487,3.87 5.489,5.535c0.54,0.448 1.104,0.864 1.68,1.264" style="fill:none;fill-rule:nonzero;stroke:#3a54f5;stroke-width:1.29px;"/><path id="POLYLINE_1080_" d="M138.699,171.087c-1.115,1.148 -2.257,2.269 -3.431,3.357c-1.113,1.031 -2.294,1.964 -3.279,3.123c-0.939,1.106 -1.679,2.336 -2.384,3.596c-0.388,0.693 -0.813,1.38 -1.13,2.109c-0.177,0.406 -0.472,1.042 -0.265,1.486c0.499,1.07 2.482,0.031 3.069,-0.393c0.566,-0.41 1.039,-0.927 1.579,-1.368c0.255,-0.208 1.305,-1.113 1.668,-0.772c0.316,0.298 -0.129,1.417 -0.219,1.733c-0.152,0.526 -0.542,1.175 -0.504,1.734c0.016,0.248 0.175,0.489 0.444,0.526c0.286,0.039 0.413,-0.194 0.527,-0.415c0.365,-0.708 0.655,-1.467 0.992,-2.189c1.284,-2.751 2.562,-5.583 4.389,-8.032c0.194,-0.26 0.393,-0.515 0.597,-0.767" style="fill:none;fill-rule:nonzero;stroke:#3a54f5;stroke-width:1.29px;"/><path id="POLYLINE_1081_" d="M150.962,194.898c1.439,-1.341 2.803,-2.648 4.562,-3.573" style="fill:none;fill-rule:nonzero;stroke:#3a54f5;stroke-width:1.29px;"/><path id="POLYLINE_1082_" d="M179.902,186.852c-0.235,2.679 -0.429,5.602 -1.666,8.05c-1.317,2.607 -4.086,3.356 -6.52,4.619c-2.79,1.447 -5.284,3.38 -7.987,4.969c-1.049,0.616 -2.162,1.239 -3.359,1.52c-1.351,0.318 -2.429,-0.235 -3.626,-0.786c-3.008,-1.385 -6.13,-2.521 -9.22,-3.708c-1.374,-0.527 -2.75,-1.052 -4.109,-1.616c-1.064,-0.442 -2.651,-0.906 -3.342,-1.894c-0.396,-0.566 -0.214,-1.251 0.001,-1.854c0.238,-0.67 0.518,-1.33 0.826,-1.971c0.476,-0.987 1.22,-2.571 2.363,-2.954c0.572,-0.192 1.14,0.098 1.613,0.399c0.651,0.414 1.249,0.906 1.886,1.34c1.012,0.69 2.089,1.234 3.25,1.633c1.422,0.488 2.903,0.827 4.377,1.122c1.327,0.265 2.697,0.494 4.055,0.445c1.261,-0.047 2.298,-0.489 3.278,-1.263c1.175,-0.927 2.349,-1.867 3.477,-2.85c0.502,-0.436 0.988,-0.891 1.442,-1.376" style="fill:none;fill-rule:nonzero;stroke:#3a54f5;stroke-width:1.29px;"/><path id="POLYLINE_1083_" d="M166.205,163.235c-1.466,0.241 -2.931,0.494 -4.356,0.919c-1.339,0.4 -2.625,0.945 -3.882,1.549c-3.084,1.481 -6.066,3.179 -9.079,4.792c-1.079,0.576 -2.16,1.151 -3.18,1.826c-1.109,0.733 -1.994,1.658 -3.001,2.509c-0.354,0.299 -0.836,0.701 -1.333,0.514c-0.614,-0.23 -0.969,-1.027 -1.269,-1.556c-0.637,-1.124 -1.421,-2.318 -1.669,-3.602c-0.228,-1.186 -0.169,-2.72 0.585,-3.727c0.766,-1.024 2.238,-1.443 3.342,-1.988c2.831,-1.396 5.571,-2.965 8.362,-4.436c2.734,-1.439 5.568,-2.615 8.395,-3.86c1.372,-0.604 2.656,-1.335 3.992,-2.007c1.166,-0.586 2.422,-0.835 3.717,-0.946c2.676,-0.229 5.6,-0.041 8.107,0.976c1.243,0.505 2.358,1.262 3.151,2.348c0.834,1.142 1.35,2.519 1.733,3.866c0.183,0.642 0.327,1.293 0.451,1.949" style="fill:none;fill-rule:nonzero;stroke:#3a54f5;stroke-width:1.29px;"/><path id="POLYLINE_1084_" d="M165.639,191.662c-2.259,0.245 -4.594,0.464 -6.866,0.294c-0.996,-0.075 -2.142,-0.135 -3.067,-0.543c-0.494,-0.217 -0.496,-0.507 -0.524,-1.001c-0.03,-0.508 -0.126,-1.014 -0.222,-1.514c-0.418,-2.165 -0.88,-4.297 -1.033,-6.502c-0.158,-2.287 -0.146,-4.592 -0.128,-6.884c0.019,-2.31 0.087,-4.62 0.211,-6.927c0.015,-0.284 0.031,-0.569 0.046,-0.853" style="fill:none;fill-rule:nonzero;stroke:#3a54f5;stroke-width:1.29px;"/><path id="POLYLINE_1085_" d="M174.07,165.536c-1.007,0.666 -2.013,1.33 -3.053,1.946c-1.24,0.734 -2.531,1.421 -3.713,2.247c-1.725,1.205 -1.554,3.892 -1.413,5.753c0.101,1.333 0.407,2.569 0.952,3.792" style="fill:none;fill-rule:nonzero;stroke:#3a54f5;stroke-width:1.29px;"/><path id="POLYLINE_1086_" d="M190.019,167.445c-0.763,-1.188 -2.042,-2.071 -3.234,-2.798c-1.344,-0.819 -2.804,-1.51 -4.322,-1.949c-1.135,-0.328 -2.238,-0.42 -3.402,-0.193c-1.506,0.295 -3.227,0.699 -4.268,1.904c-1.019,1.179 -1.365,2.809 -2.018,4.185c-0.604,1.271 -1.564,2.375 -2.048,3.701c-0.368,1.005 -0.189,1.963 0.162,2.945c0.454,1.274 1.245,2.869 0.17,4.058c-0.866,0.958 -2.255,0.616 -3.331,0.269c-0.572,-0.185 -1.6,-0.742 -2.153,-0.266c-0.403,0.346 -0.433,1.071 -0.442,1.555c-0.025,1.377 0.443,2.651 1.044,3.874c0.332,0.673 0.688,1.34 1.101,1.969c0.441,0.67 1.01,1.49 1.814,1.753c0.582,0.19 1.193,0.016 1.789,0.067c0.632,0.055 1.174,0.396 1.717,0.689c0.501,0.27 1.028,0.541 1.616,0.483c0.641,-0.064 1.221,-0.432 1.766,-0.741c1.404,-0.797 2.987,-1.373 4.279,-2.347c0.693,-0.524 1.072,-1.305 1.714,-1.873c0.503,-0.444 1.145,-0.711 1.763,-0.958c1.422,-0.567 2.967,-0.997 4.211,-1.916c1.124,-0.832 1.828,-2.023 2.215,-3.338c0.442,-1.506 0.53,-3.107 0.545,-4.666c0.015,-1.61 -0.018,-3.257 -0.195,-4.858c-0.06,-0.553 -0.196,-1.071 -0.493,-1.549Z" style="fill:none;fill-rule:nonzero;stroke:#3a54f5;stroke-width:1.29px;"/><path id="POLYLINE_1087_" d="M132.672,183.152c0.634,0.186 1.077,0.783 1.497,1.254" style="fill:none;fill-rule:nonzero;stroke:#3a54f5;stroke-width:1.29px;"/><path id="POLYLINE_1088_" d="M25.954,115.472c1.389,-0.194 2.772,-0.415 4.177,-0.428c1.265,-0.013 2.528,0.112 3.782,0.258c2.851,0.333 5.863,0.927 8.741,0.595c1.344,-0.155 2.634,-0.578 3.96,-0.83c0.636,-0.121 1.277,-0.22 1.922,-0.275c0.582,-0.049 1.172,-0.024 1.751,-0.113c1.254,-0.192 2.322,-0.998 3.378,-1.635c0.272,-0.164 1.197,-0.84 1.442,-0.409c0.187,0.33 -0.216,1.042 -0.362,1.323c-0.297,0.575 -0.692,1.048 -1.143,1.509c-0.19,0.194 -0.46,0.394 -0.123,0.546c0.196,0.089 0.516,0.05 0.731,0.046c1.177,-0.02 2.378,-0.35 3.554,-0.215c1.265,0.146 2.183,0.967 1.982,2.24c-0.093,0.588 -0.308,1.152 -0.47,1.723c-0.182,0.643 -0.388,1.113 -1.046,1.374c-1.042,0.415 -2.294,0.421 -3.4,0.428c-1.362,0.009 -2.731,-0.081 -4.077,-0.295c-2.64,-0.419 -5.168,-1.286 -7.88,-0.965c-1.235,0.146 -2.445,0.481 -3.646,0.79c-1.577,0.407 -3.157,0.802 -4.728,1.23c-3.092,0.842 -6.129,1.798 -9.175,2.785c-0.632,0.204 -1.267,0.398 -1.901,0.596" style="fill:none;fill-rule:nonzero;stroke:#3a54f5;stroke-width:1.29px;"/><path id="POLYLINE_1089_" d="M25.764,77.3c3.061,0.292 6.033,0.823 9.055,1.385c2.6,0.483 5.209,0.88 7.86,0.886c2.666,0.007 5.17,-0.343 7.71,-1.142c2.454,-0.77 4.765,-1.765 7.389,-1.591c1.113,0.074 2.217,0.359 3.274,0.705c1.066,0.347 1.431,1.277 1.574,2.308c0.134,0.967 0.103,2.264 -0.707,2.957c-0.807,0.691 -2.155,0.607 -3.14,0.727c-0.198,0.024 -0.794,0.03 -0.908,0.232c-0.131,0.231 0.341,0.478 0.497,0.597c0.389,0.297 1.35,1.006 1.195,1.596c-0.171,0.652 -2.772,-0.538 -3.207,-0.653c-1.032,-0.273 -2.111,-0.261 -3.156,-0.472c-1.434,-0.288 -2.837,-0.629 -4.311,-0.571c-1.057,0.041 -2.098,0.227 -3.139,0.396c-1.976,0.32 -3.953,0.64 -5.929,0.961c-2.685,0.435 -5.369,0.894 -8.066,1.249c-0.795,0.105 -1.589,0.209 -2.384,0.314" style="fill:none;fill-rule:nonzero;stroke:#3a54f5;stroke-width:1.29px;"/><path id="POLYLINE_1090_" d="M6.293,100.602c0.023,1.715 0.194,3.421 0.338,5.129c0.135,1.591 0.211,3.186 0.316,4.778c0.081,1.245 0.173,2.549 0.568,3.743c0.408,1.23 1.283,1.971 2.518,2.346c1.307,0.397 2.707,0.524 4.054,0.29" style="fill:none;fill-rule:nonzero;stroke:#3a54f5;stroke-width:1.29px;"/><path id="POLYLINE_1091_" d="M17.937,85.852c-1.213,0.03 -2.425,0.181 -3.628,0.331c-1.021,0.127 -2.079,0.276 -3.03,0.688c-0.954,0.415 -1.548,1.153 -2.007,2.054c-0.556,1.09 -1.063,2.222 -1.488,3.369c-0.469,1.267 -0.809,2.572 -1.073,3.895" style="fill:none;fill-rule:nonzero;stroke:#3a54f5;stroke-width:1.29px;"/><path id="POLYLINE_1092_" d="M28.929,92.397c-0.05,-1.342 -0.036,-2.673 0.208,-3.998c0.224,-1.216 0.475,-2.406 0.472,-3.648c-0.006,-2.473 -0.9,-4.684 -2.599,-6.499c-0.723,-0.773 -1.587,-1.18 -2.625,-1.354c-0.842,-0.141 -1.868,-0.291 -2.708,-0.06c-1.059,0.291 -1.398,1.445 -1.648,2.383c-0.308,1.157 -0.47,2.351 -0.845,3.489c-0.377,1.143 -0.983,2.196 -1.31,3.357c-0.295,1.047 -0.449,2.133 -0.535,3.215c-0.024,0.29 -0.039,0.581 -0.052,0.873" style="fill:none;fill-rule:nonzero;stroke:#3a54f5;stroke-width:1.29px;"/><path id="POLYLINE_1093_" d="M13.851,112.047c-0.008,2.659 0.135,5.41 0.669,8.022c0.463,2.261 1.594,4.072 3.526,5.399c0.908,0.623 1.976,1.11 3.072,1.288c0.539,0.088 1.168,0.115 1.647,-0.189c0.413,-0.261 0.628,-0.729 0.813,-1.159c0.232,-0.542 0.407,-1.124 0.858,-1.535c0.446,-0.407 1.023,-0.623 1.414,-1.097c0.87,-1.053 0.573,-2.311 0.309,-3.516c-0.278,-1.275 -0.277,-2.444 -0.209,-3.742c0.058,-1.126 -0.072,-2.227 -0.309,-3.326c-0.067,-0.311 -0.141,-0.62 -0.217,-0.928" style="fill:none;fill-rule:nonzero;stroke:#3a54f5;stroke-width:1.29px;"/><path id="POLYLINE_1094_" d="M19.2,96.132c-1.704,-0.852 -3.833,-1.27 -5.701,-0.748c-1.168,0.325 -2.14,0.705 -3.376,0.68c-1.313,-0.026 -2.697,-0.274 -3.921,0.333c-1.087,0.539 -2.187,1.62 -2.855,2.614c-0.326,0.485 -0.289,0.838 0.315,0.989c0.583,0.146 1.196,0.129 1.784,0.253c1.505,0.318 1.838,2.018 2.964,2.87c0.875,0.662 2.052,0.877 3.132,0.924c0.607,0.027 1.218,-0.008 1.814,-0.124c0.564,-0.11 1.11,-0.308 1.68,-0.383c1.157,-0.153 2.221,0.689 3.361,0.375c0.282,-0.078 0.548,-0.207 0.809,-0.336" style="fill:none;fill-rule:nonzero;stroke:#3a54f5;stroke-width:1.29px;"/><path id="POLYLINE_1095_" d="M19.2,96.132c1.134,-1.86 3.201,-3.351 5.373,-3.729c1.085,-0.19 2.196,-0.125 3.29,-0.065c1.369,0.074 2.693,0.085 4.061,0.012c1.179,-0.063 2.208,0.148 3.283,0.632c1.215,0.547 2.44,1.139 3.623,1.752c1.097,0.568 1.928,1.345 2.249,2.556c0.235,0.887 0.249,1.83 0.172,2.738c-0.11,1.284 -0.49,2.483 -0.863,3.71c-0.323,1.063 -0.3,2.093 -0.463,3.179c-0.292,1.961 -1.893,3.628 -3.577,4.584c-2.015,1.145 -4.241,0.908 -6.43,0.485c-1.411,-0.272 -2.813,-0.491 -4.236,-0.688c-1.053,-0.145 -2.177,-0.313 -3.073,-0.919c-0.96,-0.648 -1.54,-1.691 -1.996,-2.718c-0.526,-1.187 -0.919,-2.43 -1.285,-3.672c-0.629,-2.129 -1.498,-4.404 -0.723,-6.605c0.153,-0.435 0.355,-0.855 0.595,-1.252Z" style="fill:none;fill-rule:nonzero;stroke:#3a54f5;stroke-width:1.29px;"/><path id="POLYLINE_1096_" d="M41.22,98.009c0.564,1.361 0.745,2.826 0.645,4.288c-0.108,1.586 -0.341,3.296 -0.979,4.768c-0.403,0.929 -1.108,1.645 -1.974,2.169" style="fill:none;fill-rule:nonzero;stroke:#3a54f5;stroke-width:1.29px;"/><path id="POLYLINE_1115_" d="M33.284,193.762l10.085,1.714" style="fill:none;fill-rule:nonzero;stroke:#3a54f5;stroke-width:1.29px;"/><path id="POLYLINE_1116_" d="M51.188,198.499c2.114,-1.174 4.601,-1.847 6.337,-3.584c0.869,-0.87 2.062,-1.5 2.753,-2.533c0.565,-0.846 0.133,-1.629 -0.463,-2.321c-0.742,-0.863 -1.554,-1.718 -2.704,-1.994c-0.818,-0.196 -1.647,-0.113 -2.419,0.209c-0.257,0.107 -1.152,0.718 -1.403,0.503c-0.244,-0.208 0.121,-1.168 0.151,-1.448c0.037,-0.334 0.125,-1.097 -0.421,-0.918c-0.582,0.19 -1.123,0.974 -1.459,1.444c-0.703,0.982 -1.176,2.114 -1.815,3.138c-0.563,0.903 -1.197,1.746 -1.977,2.477c-0.174,0.162 -0.353,0.319 -0.532,0.475" style="fill:none;fill-rule:nonzero;stroke:#3a54f5;stroke-width:1.29px;"/><path id="POLYLINE_1117_" d="M35.669,162.516c0.913,0.809 1.568,1.763 2.114,2.841c0.549,1.084 1.049,2.248 1.887,3.154c0.269,0.292 0.871,0.848 1.089,0.206c0.13,-0.384 -0.06,-0.856 -0.195,-1.212c-0.082,-0.215 -0.707,-1.31 -0.473,-1.506c0.229,-0.193 1.313,0.61 1.514,0.724c0.994,0.559 2.103,0.912 3.164,1.324c0.912,0.354 2.006,0.672 2.88,0.032c0.93,-0.682 0.565,-1.916 0.53,-2.878c-0.021,-0.596 0.098,-1.218 -0.041,-1.805c-0.137,-0.576 -0.556,-1.017 -0.993,-1.399c-1.982,-1.735 -4.411,-2.85 -6.82,-3.867c-0.264,-0.11 -0.529,-0.218 -0.794,-0.324" style="fill:none;fill-rule:nonzero;stroke:#3a54f5;stroke-width:1.29px;"/><path id="POLYLINE_1118_" d="M32.507,160.812c-0.982,0.031 -1.87,0.449 -2.45,1.24" style="fill:none;fill-rule:nonzero;stroke:#3a54f5;stroke-width:1.29px;"/><path id="POLYLINE_1119_" d="M23.042,156.748c1.66,0.633 3.29,1.335 4.927,2.021c1.382,0.58 2.813,1.107 4.133,1.817c0.536,0.288 1.044,0.616 1.526,0.985c0.418,0.322 1.098,1.072 1.674,1.112c0.619,0.043 0.684,-1.2 0.784,-1.592c0.143,-0.561 0.377,-1.064 0.783,-1.488c0.509,-0.531 1.174,-0.882 1.805,-1.247c0.388,-0.225 1.363,-0.653 1.219,-1.221c-0.134,-0.533 -1.075,-0.901 -1.505,-1.127c-0.761,-0.4 -1.526,-0.789 -2.272,-1.218c-2.867,-1.648 -5.586,-3.531 -8.566,-4.985c-1.448,-0.706 -2.928,-1.334 -4.42,-1.943c-1.601,-0.654 -3.194,-1.355 -4.821,-1.943c-1.046,-0.378 -2.16,-0.692 -3.285,-0.592c-1.635,0.147 -2.903,1.115 -3.375,2.68c-0.398,1.322 -0.418,2.734 -0.625,4.09c-0.261,1.714 -0.665,3.405 -1.001,5.105c-0.564,2.861 -0.878,5.733 -0.834,8.649c0.061,3.963 0.144,7.925 0.216,11.888c0.055,3.036 0.063,6.077 0.222,9.11c0.17,3.231 0.689,6.381 1.835,9.422c1.06,2.815 2.523,5.51 4.384,7.888c1.979,2.528 4.411,4.643 6.718,6.867c1.202,1.158 2.297,2.411 3.446,3.62c0.862,0.905 1.852,1.862 3.098,2.203c2.708,0.741 5.387,-1.649 7.008,-3.493c1.017,-1.158 1.921,-2.412 2.986,-3.529c0.965,-1.011 2.068,-1.852 3.242,-2.612c1.394,-0.903 2.837,-1.741 4.173,-2.729c1.227,-0.909 2.206,-2.064 3.368,-3.043c0.302,-0.254 0.62,-0.476 0.96,-0.677c0.336,-0.198 0.799,-0.378 1.042,-0.695c0.421,-0.55 -0.339,-1.218 -0.703,-1.576c-1.054,-1.037 -2.261,-1.926 -3.038,-3.203c-0.37,-0.608 -0.703,-1.392 -1.412,-1.681c-0.554,-0.226 -0.987,0.069 -1.413,0.408c-1.206,0.961 -2.472,1.826 -3.773,2.656c-1.468,0.936 -2.963,1.837 -4.384,2.842c-1.392,0.985 -2.665,2.113 -3.95,3.226c-1.197,1.037 -2.431,2.017 -3.684,2.987" style="fill:none;fill-rule:nonzero;stroke:#3a54f5;stroke-width:1.29px;"/><path id="POLYLINE_1120_" d="M30.56,210.547c-0.394,-2.627 -1.042,-5.142 -2.02,-7.618c-0.503,-1.276 -1.043,-2.535 -1.626,-3.777c-0.307,-0.654 -0.637,-1.302 -0.902,-1.974c-0.154,-0.389 -0.406,-0.962 -0.228,-1.384c0.18,-0.427 0.763,-0.485 1.168,-0.532c0.652,-0.076 1.309,-0.088 1.96,-0.17c1.342,-0.17 2.672,-0.545 3.902,-1.103c1.042,-0.473 2.01,-1.095 2.742,-1.979c0.853,-1.028 1.42,-2.299 1.98,-3.498c1.101,-2.357 1.899,-4.841 2.102,-7.44c0.202,-2.589 -0.063,-5.216 -0.686,-7.736c-0.608,-2.458 -1.599,-4.841 -3.024,-6.95c-1.364,-2.019 -3.117,-3.774 -5.618,-4.22c-1.25,-0.222 -2.472,-0.165 -3.73,-0.09c-0.555,0.033 -1.135,0.028 -1.499,-0.446c-0.302,-0.394 -0.42,-0.927 -0.555,-1.393c-0.788,-2.735 -2.433,-5.159 -3.831,-7.62c-0.253,-0.445 -0.51,-0.886 -0.769,-1.326" style="fill:none;fill-rule:nonzero;stroke:#3a54f5;stroke-width:1.29px;"/><path id="POLYLINE_1121_" d="M34.431,185.815c2.264,-0.684 3.196,-2.586 3.181,-4.782c-0.009,-1.351 -0.031,-2.708 -0.064,-4.058c-0.027,-1.074 -0.071,-2.209 -0.455,-3.229c-0.467,-1.241 -1.56,-1.849 -2.697,-2.408" style="fill:none;fill-rule:nonzero;stroke:#3a54f5;stroke-width:1.29px;"/><path id="POLYLINE_1122_" d="M14.566,186.63c0.357,0.503 0.629,1.117 1.12,1.512c0.456,0.368 1.061,0.421 1.628,0.425c1.211,0.008 2.407,-0.244 3.62,-0.148c1.289,0.102 2.544,0.251 3.843,0.231c1.37,-0.022 2.739,-0.114 4.103,-0.241c1.259,-0.116 2.656,-0.157 3.801,-0.747c1.065,-0.549 1.701,-1.604 2.138,-2.672c0.988,-2.414 0.834,-5.008 1.054,-7.554c0.106,-1.224 0.064,-2.365 -0.48,-3.488c-0.255,-0.528 -0.576,-1.03 -0.778,-1.582c-0.243,-0.666 -0.146,-1.414 -0.419,-2.065c-0.472,-1.126 -1.978,-1.344 -3.053,-1.464c-1.419,-0.16 -2.851,-0.168 -4.267,-0.357c-1.294,-0.172 -2.574,-0.453 -3.878,-0.544c-1.065,-0.074 -2.137,-0.003 -3.191,0.161c-2.382,0.371 -5.159,1.043 -6.566,3.154c-0.692,1.038 -1.118,2.261 -1.475,3.445c-0.339,1.125 -0.551,2.268 -0.559,3.444c-0.009,1.257 -0.016,2.613 0.263,3.845c0.255,1.125 0.928,2.038 1.664,2.906c0.485,0.571 0.995,1.13 1.432,1.739Z" style="fill:none;fill-rule:nonzero;stroke:#3a54f5;stroke-width:1.29px;"/><path id="POLYLINE_1123_" d="M114.808,30.092c-1.112,0.272 -2.007,1.05 -3.054,1.487c-1.266,0.528 -2.602,0.902 -3.934,1.23c-2.883,0.709 -5.816,1.089 -8.781,1.242c-3.022,0.157 -6.056,0.288 -9.082,0.344c-3.001,0.055 -6.025,0.074 -9.003,-0.342c-1.346,-0.188 -2.689,-0.46 -3.982,-0.879c-0.571,-0.185 -1.136,-0.397 -1.67,-0.673c-0.702,-0.363 -1.268,-0.891 -1.876,-1.383c-0.258,-0.209 -0.524,-0.409 -0.791,-0.607" style="fill:none;fill-rule:nonzero;stroke:#3a54f5;stroke-width:1.29px;"/><path id="POLYLINE_1124_" d="M113.103,26.221c1.21,2.677 2.296,5.38 3.358,8.114c1,2.574 2.136,5.073 3.606,7.419c0.796,1.27 1.647,2.517 2.352,3.841c0.317,0.596 0.585,1.214 0.858,1.831c0.211,0.478 0.41,1.122 0.812,1.483c0.469,0.42 1.08,-0.16 1.5,-0.407c0.617,-0.364 1.215,-0.757 1.828,-1.127c1.112,-0.67 2.531,-1.096 3.475,-2.001c0.9,-0.865 0.082,-1.967 -0.405,-2.829c-0.617,-1.091 -1.143,-2.228 -1.634,-3.379c-1.213,-2.847 -2.425,-5.676 -3.761,-8.468c-1.301,-2.719 -2.468,-5.439 -3.5,-8.269c-0.921,-2.526 -1.981,-4.926 -4.072,-6.722c-1.125,-0.966 -2.388,-1.765 -3.616,-2.593c-1.214,-0.82 -2.365,-1.723 -3.543,-2.591c-0.94,-0.693 -1.927,-1.372 -3.022,-1.801c-0.928,-0.363 -1.915,-0.517 -2.907,-0.584c-0.678,-0.046 -1.358,-0.054 -2.037,-0.07" style="fill:none;fill-rule:nonzero;stroke:#3a54f5;stroke-width:1.29px;"/><path id="POLYLINE_1125_" d="M86.766,7.779c-2.481,-0.001 -5.108,-0.025 -7.411,1.013c-1.118,0.504 -2.138,1.194 -3.198,1.801c-1.378,0.789 -2.776,1.552 -4.107,2.419c-2.268,1.476 -4.094,3.324 -5.532,5.601c-1.595,2.527 -2.861,5.262 -4.024,8.005c-1.143,2.697 -2.146,5.449 -3.266,8.155c-0.574,1.386 -1.167,2.763 -1.833,4.108c-0.63,1.273 -1.375,2.478 -2.083,3.709c-0.559,0.971 -1.415,2.308 -0.188,3.1c1.106,0.713 2.429,1.097 3.581,1.743c0.643,0.361 1.28,0.759 1.961,1.05c0.433,0.185 0.99,0.405 1.336,-0.036c0.376,-0.48 0.514,-1.199 0.756,-1.754c0.299,-0.686 0.626,-1.361 0.96,-2.031c1.289,-2.594 2.709,-5.122 4.168,-7.626c0.766,-1.315 1.487,-2.673 2.325,-3.946c0.734,-1.114 1.827,-2.057 2.824,-2.937c0.52,-0.46 1.058,-0.899 1.605,-1.327" style="fill:none;fill-rule:nonzero;stroke:#3a54f5;stroke-width:1.29px;"/><path id="POLYLINE_1126_" d="M101.103,7.084c2.263,1.48 3.873,3.83 4.753,6.345c0.91,2.6 0.687,5.307 0.135,7.959c-0.295,1.414 -0.465,2.984 -1.055,4.317c-0.517,1.169 -1.519,2.037 -2.511,2.815c-1.012,0.795 -2.125,1.781 -3.419,2.051c-1.185,0.247 -2.449,0.226 -3.652,0.175c-1.203,-0.052 -2.45,-0.146 -3.598,-0.528c-0.561,-0.187 -1.093,-0.461 -1.676,-0.577c-0.608,-0.121 -1.24,-0.095 -1.856,-0.13c-0.706,-0.04 -1.439,-0.125 -2.046,-0.515c-0.641,-0.412 -1.07,-1.075 -1.417,-1.734c-0.632,-1.202 -1.12,-2.502 -1.557,-3.785c-0.865,-2.537 -1.379,-5.184 -0.977,-7.859c0.4,-2.672 1.629,-5.071 3.572,-6.966c1.766,-1.723 4.025,-3.273 6.513,-3.706c2.335,-0.406 4.802,0.164 6.931,1.123c0.645,0.29 1.269,0.628 1.86,1.015Z" style="fill:none;fill-rule:nonzero;stroke:#3a54f5;stroke-width:1.29px;"/><path id="POLYLINE_1127_" d="M102.429,28.517c-0.918,2.358 -2.964,3.696 -5.43,4.071c-2.443,0.371 -5.111,0.102 -7.484,-0.546c-1.54,-0.421 -2.867,-1.14 -3.072,-2.845" style="fill:none;fill-rule:nonzero;stroke:#3a54f5;stroke-width:1.29px;"/><path id="POLYLINE_1128_" d="M130.777,45.475c0.419,1.146 0.841,2.288 1.413,3.37c0.573,1.087 1.279,2.1 1.859,3.184c0.5,0.932 0.93,1.943 1.014,3.006c0.126,1.602 -0.8,2.854 -2.186,3.591c-0.887,0.472 -2.143,0.874 -2.97,0.087c-0.789,-0.751 -1.078,-2.015 -1.469,-2.986c-0.177,-0.44 -0.374,-1.107 -0.787,-1.391c-0.433,-0.298 -0.849,0.197 -1.146,0.474c-0.415,0.385 -0.877,0.809 -1.485,0.812c-0.447,0.002 -0.725,-0.257 -0.768,-0.693c-0.093,-0.934 0.456,-1.858 0.702,-2.726c0.242,-0.857 0.12,-1.767 -0.146,-2.605c-0.06,-0.186 -0.128,-0.369 -0.204,-0.548" style="fill:none;fill-rule:nonzero;stroke:#3a54f5;stroke-width:1.29px;"/><path id="POLYLINE_1129_" d="M55.289,45.789c-0.372,1.056 -0.702,2.121 -0.971,3.208c-0.295,1.195 -0.679,2.31 -1.122,3.46c-0.905,2.351 -1.081,5.269 1.726,6.383c0.923,0.366 2.347,0.68 3.219,0.029c0.703,-0.525 0.815,-1.558 0.915,-2.354c0.072,-0.562 0.121,-1.128 0.209,-1.687c0.061,-0.385 0.124,-1.197 0.578,-1.351c0.416,-0.141 0.97,0.325 1.31,0.5c0.414,0.213 0.889,0.384 1.36,0.263c1.04,-0.269 0.399,-1.453 0.045,-2.04c-0.562,-0.934 -1.197,-1.688 -1.325,-2.805c-0.028,-0.24 -0.04,-0.482 -0.039,-0.724" style="fill:none;fill-rule:nonzero;stroke:#3a54f5;stroke-width:1.29px;"/><path id="POLYLINE_1140_" d="M150.855,107.504c-1.542,-0.943 -1.753,-3.223 -1.723,-4.843c0.017,-0.888 0.135,-1.768 0.249,-2.647c0.108,-0.828 0.125,-1.692 0.323,-2.504c0.23,-0.94 0.936,-1.565 1.8,-1.966" style="fill:none;fill-rule:nonzero;stroke:#3a54f5;stroke-width:1.29px;"/><path id="POLYLINE_1141_" d="M160.931,90.547c0.394,-2.036 0.495,-4.031 0.605,-6.095c0.049,-0.914 0.504,-1.931 0.264,-2.826c-0.223,-0.833 -0.775,-1.606 -1.293,-2.286c-0.573,-0.751 -1.324,-1.234 -0.745,-2.198c0.512,-0.853 1.344,-1.547 2.099,-2.185c1.449,-1.226 3.092,-2.543 4.878,-3.254c1.865,-0.743 3.281,0.714 4.562,1.862c1.495,1.341 2.906,2.798 4.049,4.449c2.094,3.025 3.146,6.684 3.48,10.307c0.408,4.419 -0.078,8.931 -0.282,13.348c-0.193,4.163 0.082,8.277 0.223,12.435c0.071,2.08 0.061,4.189 -0.414,6.227c-0.452,1.939 -1.319,3.752 -2.51,5.354c-1.195,1.609 -2.67,3.001 -4.163,4.336c-0.911,0.814 -1.81,1.643 -2.735,2.443c-0.499,0.432 -1.182,1.062 -1.905,0.817c-0.889,-0.301 -1.539,-1.431 -2.089,-2.134c-0.636,-0.814 -1.267,-1.633 -1.988,-2.377c-0.699,-0.721 -1.492,-1.291 -2.291,-1.896c-0.59,-0.447 -1.361,-1.049 -1.082,-1.876c0.271,-0.802 1.046,-1.433 1.607,-2.029c0.588,-0.624 0.888,-1.26 1.059,-2.095c0.36,-1.749 -0.028,-3.54 -0.44,-5.246c-0.261,-1.087 -0.538,-2.169 -0.795,-3.257" style="fill:none;fill-rule:nonzero;stroke:#3a54f5;stroke-width:1.29px;"/><path id="POLYLINE_1142_" d="M174.331,96.139c-0.448,-1.268 -1.357,-2.09 -2.448,-2.833c-1.098,-0.747 -2.23,-1.456 -3.452,-1.989c-2.438,-1.06 -5.071,-1.078 -7.675,-0.748c-2.486,0.315 -4.934,0.911 -6.933,2.478c-0.951,0.746 -1.816,1.654 -2.402,2.711c-0.525,0.952 -0.658,1.973 -0.683,3.043c-0.034,1.454 -0.137,2.896 -0.233,4.347c-0.079,1.201 -0.163,2.465 0.121,3.647c0.519,2.157 2.615,3.395 4.54,4.218c2.404,1.029 5.121,1.441 7.73,1.453c2.572,0.013 5.203,-0.539 7.483,-1.736c2.134,-1.12 3.52,-2.85 4.076,-5.167c0.591,-2.464 0.664,-5.2 0.283,-7.702c-0.089,-0.583 -0.211,-1.165 -0.407,-1.722Z" style="fill:none;fill-rule:nonzero;stroke:#3a54f5;stroke-width:1.29px;"/><path id="POLYLINE_1143_" d="M151.542,127.58c2.686,-0.612 5.36,-1.248 8.018,-1.971" style="fill:none;fill-rule:nonzero;stroke:#3a54f5;stroke-width:1.29px;"/><path id="POLYLINE_1144_" d="M160.028,78.753c-2.621,-1.003 -5.282,-1.867 -7.965,-2.69" style="fill:none;fill-rule:nonzero;stroke:#3a54f5;stroke-width:1.29px;"/><path id="POLYLINE_1145_" d="M167.683,71.463c-1.225,-1.175 -2.539,-2.247 -3.863,-3.309c-1.154,-0.925 -2.357,-1.977 -3.781,-2.468c-1.33,-0.459 -2.563,-0.193 -3.77,0.491c-1.467,0.833 -2.878,1.764 -4.287,2.689c-2.799,1.839 -5.405,4 -8.295,5.697c-0.69,0.405 -1.385,0.689 -2.192,0.752c-0.775,0.06 -1.556,0.022 -2.334,0.053c-1.503,0.061 -2.907,0.446 -4.282,1.038c-1.396,0.603 -2.857,1.264 -4.134,2.088c-1.27,0.819 -1.353,1.923 -1.528,3.295c-0.063,0.493 -0.508,1.679 -0.085,2.082c0.399,0.381 1.511,-0.024 1.978,-0.116c1.686,-0.332 3.375,-0.651 5.073,-0.917c0.735,-0.116 1.51,-0.286 2.257,-0.273c0.457,0.009 0.436,0.181 0.125,0.454c-0.311,0.272 -0.656,0.507 -0.977,0.767c-0.547,0.442 -1.082,0.913 -1.561,1.427c-0.14,0.15 -0.658,0.62 -0.527,0.872c0.104,0.198 0.52,0.109 0.696,0.084c0.717,-0.1 1.422,-0.325 2.117,-0.52c0.682,-0.19 1.372,-0.372 2.02,-0.658c1.189,-0.525 2.2,-1.417 2.832,-2.543c0.356,-0.633 0.602,-1.342 1.059,-1.915c0.45,-0.563 1.083,-0.951 1.698,-1.315c1.458,-0.86 2.996,-1.602 4.511,-2.358c1.455,-0.725 2.922,-1.475 4.455,-2.028c0.576,-0.208 1.27,-0.464 1.886,-0.325c0.609,0.137 1.164,0.675 1.623,1.067c0.519,0.443 1.011,0.924 1.432,1.462" style="fill:none;fill-rule:nonzero;stroke:#3a54f5;stroke-width:1.29px;"/><path id="POLYLINE_1146_" d="M159.738,125.985c-0.546,0.644 -1.107,1.272 -1.633,1.933c-0.461,0.577 -0.934,1.286 -1.572,1.686c-0.512,0.321 -0.968,0.134 -1.447,-0.149c-0.703,-0.415 -1.407,-0.814 -2.136,-1.182c-1.574,-0.797 -3.179,-1.54 -4.8,-2.24c-0.717,-0.309 -1.442,-0.613 -2.185,-0.859c-0.823,-0.273 -1.54,-0.487 -2.187,-1.089c-1.197,-1.113 -1.613,-2.71 -2.596,-3.971c-0.922,-1.182 -2.232,-1.74 -3.668,-2.045c-0.698,-0.149 -1.673,-0.449 -2.387,-0.311c-0.779,0.151 0.348,1.015 0.618,1.195c0.684,0.456 1.472,0.721 2.026,1.352c0.137,0.157 0.454,0.497 0.426,0.732c-0.043,0.36 -0.533,0.209 -0.784,0.155c-1.605,-0.342 -3.227,-0.685 -4.82,-1.076c-0.772,-0.189 -1.579,-0.507 -2.375,-0.575c-0.745,-0.064 -0.783,0.671 -0.776,1.247c0.014,1.221 0.231,2.613 0.904,3.66c0.761,1.184 2.194,1.822 3.405,2.452c1.29,0.672 2.863,1.628 4.361,1.656c0.591,0.01 1.09,-0.304 1.667,-0.348c0.562,-0.042 1.136,0.153 1.652,0.351c3.066,1.173 5.766,3.325 8.333,5.303c1.419,1.093 2.806,2.219 4.178,3.368c0.96,0.803 2.004,1.575 3.256,1.854c1.505,0.335 2.776,-0.391 3.933,-1.277c1.284,-0.984 2.517,-2.059 3.673,-3.186c0.568,-0.554 1.116,-1.127 1.631,-1.73" style="fill:none;fill-rule:nonzero;stroke:#3a54f5;stroke-width:1.29px;"/><path id="POLYLINE_1188_" d="M47.606,158.412l-6.407,0.094" style="fill:none;fill-rule:nonzero;stroke:#3a54f5;stroke-width:1.29px;"/><path id="POLYLINE_1189_" d="M85.446,237.546c0.009,-2.434 0.399,-4.732 1.108,-7.062" style="fill:none;fill-rule:nonzero;stroke:#3a54f5;stroke-width:1.29px;"/><path id="POLYLINE_1190_" d="M98.937,237.493c-0.089,-2.336 -0.137,-4.672 -0.129,-7.009" style="fill:none;fill-rule:nonzero;stroke:#3a54f5;stroke-width:1.29px;"/><path id="POLYLINE_1191_" d="M116.784,246.657c-0.316,-2.199 -0.753,-4.274 -1.517,-6.368c-0.789,-2.162 -1.703,-4.278 -2.635,-6.382c-0.509,-1.149 -1.045,-2.286 -1.58,-3.423" style="fill:none;fill-rule:nonzero;stroke:#3a54f5;stroke-width:1.29px;"/><path id="POLYLINE_1192_" d="M140.398,201.742c0.541,0.071 1.036,-0.224 1.487,-0.485c0.664,-0.384 1.323,-0.779 1.984,-1.169" style="fill:none;fill-rule:nonzero;stroke:#3a54f5;stroke-width:1.29px;"/><path id="POLYLINE_1193_" d="M155.426,157.763c-1.824,-0.499 -3.602,-0.686 -5.492,-0.616c-2.222,0.083 -4.436,0.373 -6.646,0.598c-0.961,0.098 -1.924,0.161 -2.89,0.185" style="fill:none;fill-rule:nonzero;stroke:#3a54f5;stroke-width:1.29px;"/><path id="POLYLINE_1194_" d="M144.573,74.007c-1.39,-0.346 -2.782,-0.686 -4.175,-1.02" style="fill:none;fill-rule:nonzero;stroke:#3a54f5;stroke-width:1.29px;"/><path id="POLYLINE_1195_" d="M140.398,88.196c3.538,1.143 7.305,2.123 10.525,4.024c0.744,0.44 1.449,0.948 2.061,1.556" style="fill:none;fill-rule:nonzero;stroke:#3a54f5;stroke-width:1.29px;"/><path id="POLYLINE_1196_" d="M152.936,109.817c-2.611,2.303 -6.236,3.392 -9.53,4.336c-0.998,0.286 -2.003,0.549 -3.008,0.806" style="fill:none;fill-rule:nonzero;stroke:#3a54f5;stroke-width:1.29px;"/><path id="POLYLINE_1197_" d="M140.398,130.029l2.843,-0.626" style="fill:none;fill-rule:nonzero;stroke:#3a54f5;stroke-width:1.29px;"/><path id="POLYLINE_1203_" d="M112.463,31.254c0.635,1.976 1.221,3.959 1.607,6c0.391,2.068 0.634,4.163 0.823,6.257c0.107,1.181 0.183,2.365 0.254,3.549" style="fill:none;fill-rule:nonzero;stroke:#3a54f5;stroke-width:1.29px;"/><path id="POLYLINE_1204_" d="M47.606,95.007c-2.361,0.288 -4.687,0.613 -7,1.172" style="fill:none;fill-rule:nonzero;stroke:#3a54f5;stroke-width:1.29px;"/><path id="POLYLINE_1205_" d="M97.427,47.059c-0.713,-2.282 -1.373,-4.573 -2.054,-6.863c-0.087,-0.293 -0.218,-1.018 -0.53,-1.176c-0.39,-0.196 -0.676,0.63 -0.783,0.883c-0.406,0.968 -0.655,2.001 -0.879,3.022c-0.302,1.374 -0.57,2.756 -0.848,4.135" style="fill:none;fill-rule:nonzero;stroke:#3a54f5;stroke-width:1.29px;"/><path id="POLYLINE_1206_" d="M73.533,47.059c-0.245,-3.906 -0.564,-7.735 0.357,-11.582c0.27,-1.128 0.544,-2.242 0.734,-3.386" style="fill:none;fill-rule:nonzero;stroke:#3a54f5;stroke-width:1.29px;"/><path id="POLYLINE_1207_" d="M40.913,107.001c2.212,0.564 4.435,1.062 6.692,1.411" style="fill:none;fill-rule:nonzero;stroke:#3a54f5;stroke-width:1.29px;"/><path id="POLYLINE_1208_" d="M47.606,122.577c-4.01,-0.114 -8.013,0.031 -12.021,0.133c-0.863,0.022 -1.725,0.044 -2.588,0.066" style="fill:none;fill-rule:nonzero;stroke:#3a54f5;stroke-width:1.29px;"/><path id="POLYLINE_3299_" d="M72.533,272.129c-1.137,-0.557 -1.184,-2.212 -0.01,-2.764c0.47,-0.221 0.948,-0.165 1.411,0.035c0.802,0.347 1.597,0.707 2.411,1.027c3.063,1.207 6.253,2.095 9.501,2.654c3.174,0.546 6.408,0.773 9.628,0.672c3.256,-0.103 6.496,-0.53 9.664,-1.281c1.563,-0.37 3.108,-0.819 4.625,-1.344c0.825,-0.286 1.643,-0.594 2.451,-0.924c0.714,-0.291 1.433,-0.72 2.175,-0.929c1.091,-0.307 2.163,0.666 1.942,1.767c-0.144,0.72 -0.707,1.017 -1.327,1.297c-0.731,0.331 -1.472,0.642 -2.219,0.936c-2.992,1.176 -6.093,2.064 -9.255,2.666c-3.211,0.611 -6.487,0.907 -9.756,0.891c-3.3,-0.016 -6.599,-0.345 -9.833,-0.994c-3.176,-0.636 -6.285,-1.571 -9.282,-2.788c-0.716,-0.291 -1.422,-0.603 -2.126,-0.921Z" style="fill:none;fill-rule:nonzero;stroke:#3a54f5;stroke-width:1.42px;"/><path id="POLYLINE_3298_" d="M5.469,154.237c0.564,-1.123 2.238,-1.169 2.797,-0.009c0.223,0.463 0.167,0.937 -0.036,1.394c-0.351,0.793 -0.715,1.578 -1.039,2.383c-1.221,3.027 -2.12,6.18 -2.686,9.391c-0.552,3.136 -0.782,6.333 -0.679,9.515c0.104,3.218 0.536,6.421 1.296,9.552c0.374,1.545 0.829,3.071 1.36,4.571c0.289,0.815 0.601,1.623 0.935,2.422c0.295,0.706 0.728,1.417 0.94,2.15c0.311,1.078 -0.675,2.137 -1.788,1.919c-0.728,-0.142 -1.03,-0.699 -1.312,-1.311c-0.334,-0.723 -0.649,-1.455 -0.946,-2.194c-1.191,-2.957 -2.089,-6.022 -2.698,-9.147c-0.619,-3.173 -0.918,-6.411 -0.902,-9.642c0.017,-3.261 0.349,-6.522 1.005,-9.719c0.645,-3.138 1.59,-6.212 2.822,-9.174c0.294,-0.707 0.609,-1.405 0.931,-2.101Z" style="fill:none;fill-rule:nonzero;stroke:#3a54f5;stroke-width:1.42px;"/><path id="POLYLINE_3297_" d="M182.534,123.305c-0.564,1.123 -2.237,1.17 -2.796,0.009c-0.224,-0.463 -0.167,-0.936 0.035,-1.393c0.352,-0.793 0.715,-1.579 1.04,-2.384c1.221,-3.027 2.119,-6.18 2.685,-9.39c0.553,-3.137 0.782,-6.333 0.679,-9.516c-0.104,-3.218 -0.536,-6.421 -1.295,-9.552c-0.375,-1.545 -0.829,-3.071 -1.361,-4.571c-0.288,-0.815 -0.601,-1.623 -0.934,-2.422c-0.295,-0.706 -0.729,-1.417 -0.94,-2.15c-0.311,-1.078 0.674,-2.137 1.788,-1.919c0.728,0.142 1.029,0.699 1.312,1.311c0.334,0.723 0.649,1.455 0.947,2.194c1.19,2.957 2.089,6.022 2.698,9.147c0.618,3.173 0.917,6.411 0.901,9.642c-0.017,3.262 -0.349,6.522 -1.005,9.719c-0.645,3.138 -1.59,6.212 -2.822,9.174c-0.294,0.707 -0.61,1.405 -0.932,2.101Z" style="fill:none;fill-rule:nonzero;stroke:#3a54f5;stroke-width:1.42px;"/><path id="POLYLINE_3295_" d="M72.533,5.414c-1.137,0.557 -1.184,2.211 -0.01,2.764c0.47,0.221 0.948,0.165 1.411,-0.035c0.802,-0.348 1.597,-0.707 2.411,-1.028c3.063,-1.207 6.253,-2.095 9.501,-2.654c3.174,-0.546 6.408,-0.773 9.628,-0.671c3.256,0.103 6.496,0.53 9.664,1.28c1.563,0.371 3.108,0.82 4.625,1.345c0.825,0.285 1.643,0.594 2.451,0.924c0.714,0.291 1.433,0.72 2.175,0.929c1.091,0.307 2.163,-0.667 1.942,-1.767c-0.144,-0.719 -0.707,-1.018 -1.327,-1.297c-0.731,-0.33 -1.472,-0.642 -2.219,-0.935c-2.992,-1.177 -6.093,-2.065 -9.255,-2.667c-3.211,-0.611 -6.487,-0.907 -9.756,-0.891c-3.3,0.016 -6.599,0.345 -9.833,0.994c-3.176,0.637 -6.285,1.571 -9.282,2.788c-0.716,0.29 -1.422,0.602 -2.126,0.921Z" style="fill:none;fill-rule:nonzero;stroke:#3a54f5;stroke-width:1.42px;"/><path id="POLYLINE_3292_" d="M3.958,98.282c0.27,-3.098 0.817,-6.16 1.681,-9.15c0.454,-1.57 0.991,-3.117 1.608,-4.632c0.32,-0.785 0.692,-1.547 1.02,-2.327c0.195,-0.464 0.204,-0.967 -0.052,-1.412c-0.611,-1.06 -2.163,-0.98 -2.729,0.073c-0.758,1.412 -1.315,2.979 -1.857,4.482c-1.049,2.909 -1.817,5.919 -2.302,8.969c-0.506,3.181 -0.7,6.407 -0.584,9.625c0.115,3.158 0.534,6.308 1.249,9.388c0.707,3.044 1.698,6.027 2.967,8.888c0.267,0.602 0.478,1.37 1.063,1.749c0.474,0.306 1.097,0.331 1.593,0.061c1.393,-0.757 0.555,-2.168 0.102,-3.205c-1.283,-2.938 -2.264,-6.004 -2.921,-9.138c-0.646,-3.079 -0.977,-6.219 -0.993,-9.364c-0.003,-0.751 0.015,-1.501 0.044,-2.251" style="fill:none;fill-rule:nonzero;stroke:#3a54f5;stroke-width:1.42px;"/><path id="POLYLINE_3291_" d="M185.999,164.193c-0.77,-3.213 -1.817,-6.347 -3.189,-9.36c-0.28,-0.614 -0.537,-1.213 -1.247,-1.416c-0.588,-0.168 -1.236,0.031 -1.624,0.498c-0.866,1.042 0.165,2.396 0.591,3.405c0.738,1.75 1.358,3.543 1.887,5.364" style="fill:none;fill-rule:nonzero;stroke:#3a54f5;stroke-width:1.42px;"/><path id="POLYLINE_2520_" d="M183.43,183.898c-0.422,2.198 -0.967,4.366 -1.684,6.489c-0.336,0.995 -0.706,1.979 -1.109,2.949c-0.212,0.511 -0.432,1.018 -0.664,1.522c-0.183,0.4 -0.404,0.783 -0.384,1.237c0.032,0.711 0.581,1.322 1.291,1.439c1.029,0.169 1.529,-0.579 1.897,-1.381c0.961,-2.096 1.774,-4.258 2.433,-6.464c0.62,-2.072 1.104,-4.184 1.449,-6.317c0.044,-0.275 0.085,-0.549 0.126,-0.824" style="fill:none;fill-rule:nonzero;stroke:#3a54f5;stroke-width:1.42px;"/><path id="POLYLINE_1198_" d="M140.398,84.962l0,34.344" style="fill:none;fill-rule:nonzero;stroke:#3a54f5;stroke-width:1.55px;"/><path id="POLYLINE_1199_" d="M100.527,230.483l-19.234,0" style="fill:none;fill-rule:nonzero;stroke:#3a54f5;stroke-width:1.55px;"/><path id="POLYLINE_1200_" d="M140.398,128.252l0,37.155" style="fill:none;fill-rule:nonzero;stroke:#3a54f5;stroke-width:1.55px;"/><path id="POLYLINE_1201_" d="M140.398,198.355l0,32.128l-35.894,0" style="fill:none;fill-rule:nonzero;stroke:#3a54f5;stroke-width:1.55px;"/><path id="POLYLINE_1202_" d="M140.398,175.26l0,15.522" style="fill:none;fill-rule:nonzero;stroke:#3a54f5;stroke-width:1.55px;"/><path id="POLYLINE_1209_" d="M76.322,230.483l-28.716,0l0,-26.879" style="fill:none;fill-rule:nonzero;stroke:#3a54f5;stroke-width:1.55px;"/><path id="POLYLINE_1210_" d="M47.606,193.623l0,-25.514" style="fill:none;fill-rule:nonzero;stroke:#3a54f5;stroke-width:1.55px;"/><path id="POLYLINE_1211_" d="M47.606,162.444l0,-41.784" style="fill:none;fill-rule:nonzero;stroke:#3a54f5;stroke-width:1.55px;"/><path id="POLYLINE_1212_" d="M47.606,114.9l0,-30.526" style="fill:none;fill-rule:nonzero;stroke:#3a54f5;stroke-width:1.55px;"/><path id="POLYLINE_1213_" d="M47.606,79.179l0,-32.12l7.253,0" style="fill:none;fill-rule:nonzero;stroke:#3a54f5;stroke-width:1.42px;"/><path id="POLYLINE_1214_" d="M62.6,47.059l60.516,0" style="fill:none;fill-rule:nonzero;stroke:#3a54f5;stroke-width:1.42px;"/><path id="POLYLINE_1215_" d="M131.371,47.059l9.027,0l0,28.289" style="fill:none;fill-rule:nonzero;stroke:#3a54f5;stroke-width:1.42px;"/></g></svg>