<?xml version="1.0" encoding="UTF-8" standalone="no"?><!DOCTYPE svg PUBLIC "-//W3C//DTD SVG 1.1//EN" "http://www.w3.org/Graphics/SVG/1.1/DTD/svg11.dtd"><svg width="100%" height="100%" viewBox="0 0 24 24" version="1.1" xmlns="http://www.w3.org/2000/svg" xmlns:xlink="http://www.w3.org/1999/xlink" xml:space="preserve" xmlns:serif="http://www.serif.com/" style="fill-rule:evenodd;clip-rule:evenodd;stroke-linejoin:round;stroke-miterlimit:2;"><path d="M6,22l12,0c1.104,0 2,-0.896 2,-2l0,-12l-6,-6l-8,0c-1.104,0 -2,0.896 -2,2l0,16c0,1.104 0.896,2 2,2Zm7,-18l5,5l-4,0l-1,0l0,-5Zm-4.5,7c0.828,0 1.5,0.672 1.5,1.5c0,0.828 -0.672,1.5 -1.5,1.5c-0.828,0 -1.5,-0.672 -1.5,-1.5c0,-0.828 0.672,-1.5 1.5,-1.5Zm0.5,5l1.597,1.363l2.403,-4.363l4,6l-5,0l-2.571,0l-2.429,0l2,-3Z" style="fill:#393939;fill-rule:nonzero;"/></svg>