<?xml version="1.0" encoding="UTF-8" standalone="no"?><!DOCTYPE svg PUBLIC "-//W3C//DTD SVG 1.1//EN" "http://www.w3.org/Graphics/SVG/1.1/DTD/svg11.dtd"><svg width="100%" height="100%" viewBox="0 0 301 241" version="1.1" xmlns="http://www.w3.org/2000/svg" xmlns:xlink="http://www.w3.org/1999/xlink" xml:space="preserve" xmlns:serif="http://www.serif.com/" style="fill-rule:evenodd;clip-rule:evenodd;stroke-linecap:round;stroke-linejoin:round;stroke-miterlimit:10;"><g><path id="POLYLINE_795_" d="M161.838,69.45c0.697,0.169 1.276,0.536 1.881,0.904c0.619,0.376 1.273,0.672 1.95,0.927c1.423,0.537 2.899,0.935 4.38,1.276c2.889,0.665 5.83,1.025 8.791,1.153c3.32,0.144 6.642,0.305 9.964,0.367c3.069,0.057 6.169,0.038 9.21,-0.42c1.43,-0.216 2.857,-0.521 4.224,-0.998c0.634,-0.221 1.265,-0.477 1.84,-0.826c0.59,-0.357 1.09,-0.838 1.62,-1.273c0.277,-0.228 0.563,-0.445 0.85,-0.661" style="fill:none;fill-rule:nonzero;stroke:#3a54f5;stroke-width:1.07px;"/><path id="POLYLINE_794_" d="M164.324,70.697c-0.55,1.73 -1.079,3.465 -1.463,5.241c-0.4,1.851 -0.666,3.726 -0.882,5.606c-0.208,1.815 -0.361,3.638 -0.464,5.461c-0.107,1.897 -0.178,3.797 -0.176,5.698c0.003,1.871 0.089,3.739 0.212,5.605c0.132,1.977 0.295,3.951 0.403,5.929c0.097,1.795 0.129,3.595 0.118,5.392c-0.011,1.936 -0.051,3.872 -0.137,5.806c-0.039,0.898 -0.076,1.798 -0.144,2.696c-0.068,0.917 -0.244,1.899 -0.161,2.822c0.075,0.828 0.762,0.974 1.475,1.116c0.879,0.175 1.766,0.317 2.658,0.407c0.804,0.08 1.612,0.111 2.418,0.039c0.853,-0.075 1.693,-0.25 2.539,-0.377c1.354,-0.201 3.226,-0.218 3.83,-1.72c0.303,-0.756 0.323,-1.62 0.329,-2.425c0.007,-0.976 -0.038,-1.952 -0.036,-2.927c0.003,-1.881 0.311,-3.72 0.752,-5.544c0.44,-1.823 0.972,-3.623 1.377,-5.455c0.385,-1.738 0.681,-3.49 0.978,-5.243c0.345,-2.043 0.668,-4.091 1.065,-6.124c0.347,-1.779 0.794,-3.535 1.315,-5.271c0.544,-1.812 1.155,-3.606 1.648,-5.434c0.232,-0.861 0.398,-1.82 0.79,-2.63c0.169,-0.35 0.393,-0.517 0.667,-0.16c0.232,0.302 0.375,0.697 0.508,1.051c0.59,1.554 0.873,3.212 1.204,4.835c0.41,2.017 0.803,4.04 1.25,6.049c0.414,1.856 0.871,3.702 1.409,5.525c0.558,1.89 1.183,3.761 1.764,5.644c0.491,1.596 1.026,3.276 1.058,4.96c0.025,1.331 -0.419,2.543 -1.269,3.573c-0.463,0.561 -1.007,1.012 -1.653,1.343c-0.734,0.376 -1.362,0.768 -1.931,1.371c-1.031,1.091 -1.828,2.338 -1.545,3.894c0.141,0.775 0.495,1.492 1.11,1.996c0.65,0.532 1.467,0.845 2.225,1.188c1.659,0.753 3.343,1.459 5.152,1.758c1.639,0.271 3.322,0.234 4.973,0.12c0.675,-0.047 1.324,-0.129 1.899,-0.512c0.697,-0.464 1.253,-1.153 1.743,-1.821c1.051,-1.429 1.881,-3.037 2.504,-4.695c0.587,-1.563 0.923,-3.181 1.034,-4.846c0.138,-2.041 0.076,-4.1 0.085,-6.143c0.007,-1.805 0.059,-3.609 0.109,-5.414c0.055,-1.942 0.13,-3.884 0.218,-5.825c0.077,-1.721 0.176,-3.441 0.286,-5.16c0.128,-2.015 0.287,-4.031 0.333,-6.049c0.04,-1.782 -0.037,-3.551 -0.361,-5.306c-0.319,-1.727 -0.815,-3.41 -1.101,-5.145" style="fill:none;fill-rule:nonzero;stroke:#3a54f5;stroke-width:1.07px;"/><path id="POLYLINE_793_" d="M163.645,65.299c-0.597,1.337 -1.197,2.674 -1.754,4.029c-0.618,1.503 -1.179,3.02 -1.755,4.539c-1.044,2.755 -2.241,5.439 -3.786,7.952c-0.785,1.278 -1.625,2.527 -2.353,3.839c-0.343,0.618 -0.642,1.253 -0.925,1.9c-0.282,0.645 -0.528,1.434 -0.988,1.981c-0.413,0.491 -0.847,0.159 -1.289,-0.109c-0.697,-0.423 -1.39,-0.854 -2.081,-1.288c-1.142,-0.716 -2.435,-1.202 -3.533,-1.981c-0.676,-0.479 -1.018,-1.024 -0.732,-1.843c0.225,-0.645 0.618,-1.235 0.945,-1.83c0.64,-1.167 1.172,-2.392 1.685,-3.619c1.251,-2.987 2.522,-5.946 3.906,-8.873c0.629,-1.329 1.269,-2.653 1.85,-4.003c0.63,-1.466 1.163,-2.964 1.704,-4.464c0.92,-2.556 1.905,-5.121 3.907,-7.039c1.06,-1.014 2.277,-1.836 3.485,-2.661c1.296,-0.885 2.557,-1.805 3.808,-2.754c1.103,-0.835 2.209,-1.696 3.46,-2.302c1.158,-0.56 2.41,-0.791 3.685,-0.875c0.704,-0.047 1.409,-0.055 2.114,-0.072" style="fill:none;fill-rule:nonzero;stroke:#3a54f5;stroke-width:1.07px;"/><path id="POLYLINE_792_" d="M191.567,45.516c2.78,0 5.683,-0.004 8.227,1.265c1.287,0.642 2.494,1.449 3.738,2.17c1.371,0.794 2.755,1.57 4.064,2.465c2.514,1.719 4.417,3.949 5.948,6.57c1.591,2.721 2.879,5.614 4.079,8.525c1.213,2.944 2.303,5.938 3.519,8.881c0.572,1.383 1.18,2.753 1.862,4.085c0.691,1.346 1.521,2.613 2.223,3.953c0.249,0.475 0.526,0.999 0.579,1.542c0.06,0.624 -0.349,1.015 -0.852,1.306c-1.184,0.684 -2.497,1.123 -3.689,1.803c-0.648,0.37 -1.291,0.768 -1.974,1.073c-0.473,0.212 -1.11,0.481 -1.48,-0.027c-0.399,-0.548 -0.555,-1.323 -0.823,-1.943c-0.314,-0.723 -0.655,-1.433 -1.002,-2.14c-1.35,-2.748 -2.837,-5.427 -4.365,-8.081c-0.83,-1.441 -1.609,-2.934 -2.522,-4.326c-0.781,-1.191 -1.944,-2.203 -3.002,-3.146c-0.543,-0.484 -1.103,-0.947 -1.674,-1.399" style="fill:none;fill-rule:nonzero;stroke:#3a54f5;stroke-width:1.07px;"/><path id="POLYLINE_791_" d="M176.366,44.771c-2.355,1.56 -4.041,4.017 -4.986,6.656c-0.973,2.717 -0.799,5.506 -0.273,8.298c0.281,1.49 0.522,3.071 1.003,4.513c0.35,1.047 0.996,1.879 1.798,2.626c1.033,0.962 2.22,1.904 3.435,2.624c1.166,0.692 2.657,0.686 3.973,0.687c1.474,0.002 3.013,-0.065 4.446,-0.436c0.674,-0.175 1.294,-0.497 1.961,-0.691c0.645,-0.188 1.321,-0.179 1.987,-0.207c1.147,-0.048 2.244,-0.187 3.068,-1.066c0.953,-1.018 1.449,-2.458 1.948,-3.732c1.128,-2.883 2.004,-5.948 1.77,-9.073c-0.214,-2.877 -1.291,-5.629 -3.214,-7.792c-1.746,-1.965 -4.061,-3.706 -6.604,-4.466c-2.806,-0.838 -5.904,-0.175 -8.498,1.043c-0.628,0.295 -1.235,0.634 -1.814,1.016Z" style="fill:none;fill-rule:nonzero;stroke:#3a54f5;stroke-width:1.07px;"/><path id="POLYLINE_790_" d="M174.961,67.762c0.468,1.227 1.247,2.314 2.328,3.073c1.088,0.764 2.381,1.159 3.688,1.33c1.479,0.194 2.989,0.141 4.468,-0.028c1.476,-0.168 3.029,-0.409 4.4,-1.005c0.609,-0.264 1.21,-0.626 1.583,-1.191c0.296,-0.448 0.431,-0.98 0.488,-1.509" style="fill:none;fill-rule:nonzero;stroke:#3a54f5;stroke-width:1.07px;"/><path id="POLYLINE_789_" d="M144.907,85.951c-0.472,1.31 -0.953,2.614 -1.617,3.841c-0.678,1.252 -1.496,2.425 -2.114,3.709c-0.942,1.957 -1.333,4.283 0.485,5.857c0.749,0.649 1.748,1.182 2.75,1.265c1.45,0.121 2.034,-1.234 2.478,-2.375c0.264,-0.679 0.496,-1.38 0.817,-2.037c0.185,-0.379 0.489,-1.02 1.006,-0.822c0.523,0.2 0.877,0.782 1.329,1.099c0.353,0.247 0.844,0.442 1.279,0.308c1.113,-0.342 0.2,-2.374 -0.043,-3.043c-0.379,-1.046 -0.411,-2.026 -0.12,-3.108c0.078,-0.293 0.176,-0.58 0.296,-0.859" style="fill:none;fill-rule:nonzero;stroke:#3a54f5;stroke-width:1.07px;"/><path id="POLYLINE_788_" d="M224.937,86.288c0.487,1.401 0.872,2.815 1.228,4.254c0.32,1.294 0.894,2.488 1.294,3.755c0.609,1.928 0.605,4.335 -1.279,5.553c-0.868,0.561 -1.965,0.88 -3.001,0.844c-0.547,-0.018 -1.106,-0.159 -1.486,-0.579c-0.426,-0.47 -0.569,-1.142 -0.668,-1.75c-0.118,-0.716 -0.172,-1.441 -0.271,-2.16c-0.064,-0.465 -0.112,-1.136 -0.431,-1.513c-0.358,-0.424 -0.975,0.03 -1.333,0.23c-0.465,0.26 -0.96,0.518 -1.51,0.464c-1.398,-0.138 -0.594,-1.67 -0.161,-2.368c0.594,-0.957 1.188,-1.711 1.318,-2.866c0.029,-0.257 0.041,-0.516 0.041,-0.774" style="fill:none;fill-rule:nonzero;stroke:#3a54f5;stroke-width:1.07px;"/><path id="POLYLINE_787_" d="M184.899,118.901c-0.184,2.094 -0.043,4.202 0.209,6.285c0.126,1.044 0.27,2.089 0.491,3.117c0.208,0.967 0.438,2.008 0.973,2.852c0.986,1.551 3.068,2.166 4.803,2.318c0.868,0.076 1.907,0.048 2.509,-0.68c0.613,-0.741 0.681,-1.891 0.738,-2.81c0.143,-2.335 -0.043,-4.704 -0.113,-7.038c-0.004,-0.119 -0.007,-0.239 -0.011,-0.358" style="fill:none;fill-rule:nonzero;stroke:#3a54f5;stroke-width:1.07px;"/><path id="POLYLINE_786_" d="M164.01,122.236c0.013,1.278 0.027,2.557 0.041,3.835c0.01,0.948 -0.008,1.903 0.118,2.845c0.241,1.813 1.115,3.791 2.685,4.831c1.127,0.747 2.626,0.93 3.88,0.399c1.984,-0.842 2.441,-3.085 2.584,-5.012c0.169,-2.296 0.033,-4.621 -0.009,-6.919c-0.004,-0.195 -0.008,-0.389 -0.011,-0.584" style="fill:none;fill-rule:nonzero;stroke:#3a54f5;stroke-width:1.07px;"/><path id="POLYLINE_785_" d="M41.434,84.84c0.767,2.855 1.579,5.699 2.484,8.513c0.951,2.955 1.906,5.912 3.024,8.809c1.079,2.799 2.427,5.449 3.778,8.123c1.457,2.881 2.883,5.772 4.291,8.677c1.259,2.597 2.522,5.191 3.917,7.72c0.195,0.354 0.391,0.709 0.586,1.064" style="fill:none;fill-rule:nonzero;stroke:#3a54f5;stroke-width:1.07px;"/><path id="POLYLINE_784_" d="M56.322,89.813c0.498,3.313 0.992,6.622 1.355,9.954c0.349,3.205 0.646,6.418 0.892,9.632c0.271,3.546 0.513,7.092 0.686,10.645c0.159,3.269 0.227,6.545 0.314,9.816c0.043,1.634 0.106,3.272 0.06,4.906c-0.045,1.58 -0.308,3.023 -0.795,4.524c-0.107,0.331 -0.196,0.665 -0.269,1.005" style="fill:none;fill-rule:nonzero;stroke:#3a54f5;stroke-width:1.07px;"/><path id="POLYLINE_783_" d="M74.608,81.921c-0.864,2.173 -1.662,4.37 -2.47,6.565c-0.727,1.976 -1.522,3.922 -2.323,5.869c-0.718,1.747 -1.432,3.55 -1.657,5.438c-0.225,1.887 0.223,3.753 0.503,5.608c0.307,2.037 0.366,4.08 0.262,6.135c-0.112,2.211 -0.347,4.412 -0.618,6.609c-0.268,2.158 -0.583,4.311 -0.906,6.462c-0.322,2.136 -0.642,4.274 -1.097,6.387c-0.44,2.043 -1.147,4.026 -1.509,6.085c-0.342,1.942 -0.306,3.945 -0.071,5.897c0.057,0.474 0.13,0.946 0.214,1.417" style="fill:none;fill-rule:nonzero;stroke:#3a54f5;stroke-width:1.07px;"/><path id="POLYLINE_782_" d="M65.123,144.598c0.415,0.644 0.659,1.42 0.907,2.138c0.293,0.85 0.551,1.713 0.778,2.583c0.413,1.58 0.747,3.227 0.691,4.869c-0.026,0.77 -0.123,1.601 -0.492,2.29c-0.452,0.844 -1.302,1.042 -2.188,0.734c-1.387,-0.481 -2.286,-1.756 -2.973,-2.985c-0.843,-1.508 -1.531,-3.1 -2.334,-4.63c-0.822,-1.566 -1.819,-3.168 -2.268,-4.895c-0.37,-1.424 -0.026,-2.904 0.704,-4.162c0.112,-0.193 0.362,-0.676 0.573,-0.36c0.203,0.302 0.207,0.887 0.275,1.224c0.157,0.782 0.359,1.558 0.633,2.309c0.246,0.677 0.553,1.333 0.95,1.936c0.454,0.69 1.068,1.48 1.867,1.779c1.563,0.583 2.01,-1.68 2.367,-2.682c0.113,-0.319 0.273,-0.502 0.51,-0.148Z" style="fill:none;fill-rule:nonzero;stroke:#3a54f5;stroke-width:1.07px;"/><path id="POLYLINE_781_" d="M66.474,130.16c0.657,1.684 1.251,3.315 1.24,5.148c-0.01,1.777 -0.481,3.52 -1.367,5.06c-0.456,0.793 -1.004,1.56 -1.673,2.187" style="fill:none;fill-rule:nonzero;stroke:#3a54f5;stroke-width:1.07px;"/><path id="POLYLINE_780_" d="M66.523,148.289c1.759,-2.529 3.672,-5.207 4.299,-8.283c0.167,-0.82 0.263,-1.654 0.468,-2.466c0.183,-0.721 0.433,-1.421 0.679,-2.122c0.248,-0.706 0.571,-1.438 0.651,-2.188c0.099,-0.928 -0.426,-1.599 -1.128,-2.125c-1.432,-1.072 -3.162,-1.666 -4.731,-2.496" style="fill:none;fill-rule:nonzero;stroke:#3a54f5;stroke-width:1.07px;"/><path id="POLYLINE_779_" d="M42.017,84.846c-1.874,-0.011 -3.758,-0.151 -5.564,-0.681c-1.2,-0.352 -3.497,-1.068 -3.138,-2.708c0.226,-1.034 0.761,-2.04 1.152,-3.017" style="fill:none;fill-rule:nonzero;stroke:#3a54f5;stroke-width:1.07px;"/><path id="POLYLINE_778_" d="M52.657,84.055c-0.881,0.107 -1.763,0.208 -2.645,0.303" style="fill:none;fill-rule:nonzero;stroke:#3a54f5;stroke-width:1.07px;"/><path id="POLYLINE_777_" d="M76.179,59.811c0.514,1.133 0.953,2.279 1.202,3.501c0.246,1.203 0.379,2.428 0.474,3.651c0.198,2.587 0.189,5.194 0.511,7.771c0.157,1.261 0.442,2.502 0.633,3.758c0.063,0.413 0.119,0.836 0.103,1.255c-0.028,0.715 -0.379,1.219 -1.008,1.534c-0.941,0.472 -2.075,0.576 -3.109,0.626c-1.182,0.057 -2.368,0.008 -3.55,-0.03c-2.619,-0.085 -5.211,-0.16 -7.812,0.228c-0.281,0.042 -0.56,0.089 -0.84,0.135" style="fill:none;fill-rule:nonzero;stroke:#3a54f5;stroke-width:1.07px;"/><path id="POLYLINE_776_" d="M51.1,85.074c-2.22,-1.471 -4.505,-2.891 -6.523,-4.637c-0.567,-0.491 -1.105,-1.013 -1.627,-1.552" style="fill:none;fill-rule:nonzero;stroke:#3a54f5;stroke-width:1.07px;"/><path id="POLYLINE_775_" d="M65.148,78.991c-0.973,1.281 -1.915,2.586 -2.824,3.914c-0.849,1.241 -1.581,2.549 -2.549,3.705c-0.934,1.115 -2.013,2.076 -3.158,2.97c-0.664,0.519 -1.319,1.06 -2.008,1.547c-0.469,0.33 -1.215,0.899 -1.824,0.759c-0.671,-0.154 -0.667,-1.14 -0.605,-1.67c0.058,-0.499 0.224,-0.979 0.445,-1.428c0.322,-0.651 0.775,-1.219 1.151,-1.837c0.178,-0.292 0.337,-0.595 0.467,-0.912c0.093,-0.223 0.272,-0.583 0.206,-0.832c-0.212,-0.804 -3.139,1.175 -3.666,1.142c-0.23,-0.014 -0.467,-0.19 -0.51,-0.427c-0.052,-0.289 0.225,-0.46 0.434,-0.6c0.699,-0.469 1.417,-0.91 2.117,-1.38c2.582,-1.732 5.245,-3.461 7.443,-5.68c0.244,-0.246 0.482,-0.499 0.717,-0.755" style="fill:none;fill-rule:nonzero;stroke:#3a54f5;stroke-width:1.07px;"/><path id="POLYLINE_774_" d="M38.672,70.381c1.15,-1.681 2.276,-3.281 2.946,-5.221" style="fill:none;fill-rule:nonzero;stroke:#3a54f5;stroke-width:1.07px;"/><path id="POLYLINE_773_" d="M42.311,39.634c-2.793,0.692 -5.904,1.378 -8.236,3.162c-2.446,1.871 -2.693,5.058 -3.682,7.762c-1.078,2.953 -2.603,5.718 -3.742,8.646c-0.461,1.185 -0.933,2.467 -0.941,3.755c-0.009,1.462 1.006,2.596 1.767,3.752c1.851,2.813 3.493,5.766 5.186,8.674c0.717,1.231 1.436,2.46 2.187,3.67c0.371,0.6 0.751,1.2 1.175,1.765c0.395,0.526 0.908,1.177 1.607,1.27c0.503,0.067 1.002,-0.167 1.434,-0.395c0.685,-0.362 1.352,-0.776 1.989,-1.216c0.574,-0.396 1.13,-0.827 1.628,-1.316c0.48,-0.472 1.077,-1.129 1.02,-1.856c-0.046,-0.591 -0.504,-1.084 -0.894,-1.489c-0.515,-0.536 -1.061,-1.039 -1.57,-1.58c-0.968,-1.033 -1.739,-2.184 -2.37,-3.451c-0.668,-1.345 -1.235,-2.75 -1.741,-4.163c-0.474,-1.324 -0.926,-2.719 -1.004,-4.132c-0.058,-1.043 0.22,-1.975 0.719,-2.883c0.761,-1.385 1.577,-2.758 2.422,-4.094c0.385,-0.609 0.791,-1.204 1.236,-1.77" style="fill:none;fill-rule:nonzero;stroke:#3a54f5;stroke-width:1.07px;"/><path id="POLYLINE_772_" d="M68.817,49.734c-0.013,1.554 -0.039,3.108 -0.257,4.65c-0.209,1.472 -0.583,2.912 -1.025,4.33c-1.047,3.364 -2.3,6.668 -3.474,9.99c-0.423,1.196 -0.848,2.396 -1.395,3.543c-0.299,0.628 -0.636,1.236 -1.023,1.815c-0.414,0.618 -0.911,1.216 -1.232,1.892c-0.3,0.633 -0.167,1.097 0.424,1.467c0.509,0.318 1.104,0.509 1.668,0.706c1.282,0.449 2.585,1.027 3.971,0.984c0.954,-0.03 1.967,-0.25 2.795,-0.743c1.351,-0.806 1.588,-2.513 2.012,-3.894c0.938,-3.051 2.107,-6.028 3.151,-9.044c1.081,-3.124 1.9,-6.291 2.747,-9.484c0.392,-1.476 0.9,-2.888 1.396,-4.329c0.442,-1.286 0.542,-2.597 0.461,-3.949c-0.175,-2.91 -0.875,-6.061 -2.476,-8.534c-0.715,-1.105 -1.657,-2.029 -2.845,-2.613c-1.241,-0.61 -2.641,-0.9 -4.004,-1.074c-0.747,-0.096 -1.498,-0.143 -2.251,-0.164" style="fill:none;fill-rule:nonzero;stroke:#3a54f5;stroke-width:1.07px;"/><path id="POLYLINE_771_" d="M39.649,54.925c0.109,2.321 0.255,4.716 0.787,6.984c0.23,0.98 0.48,2.025 0.966,2.916c0.241,0.441 0.47,0.622 0.968,0.566c0.505,-0.058 1.005,-0.07 1.513,-0.059c2.364,0.051 4.698,0.216 7.06,0.014c2.416,-0.206 4.821,-0.599 7.211,-0.995c2.389,-0.396 4.769,-0.843 7.136,-1.347c0.283,-0.06 0.565,-0.12 0.848,-0.18" style="fill:none;fill-rule:nonzero;stroke:#3a54f5;stroke-width:1.07px;"/><path id="POLYLINE_770_" d="M65.187,42.107c-0.498,1.075 -1,2.147 -1.443,3.246c-0.538,1.334 -1.041,2.689 -1.638,3.998c-0.242,0.532 -0.503,1.061 -0.99,1.413c-0.463,0.335 -1.032,0.527 -1.575,0.688c-1.077,0.319 -2.203,0.503 -3.322,0.593c-1.369,0.11 -2.686,-0.006 -4.013,-0.356" style="fill:none;fill-rule:nonzero;stroke:#3a54f5;stroke-width:1.07px;"/><path id="POLYLINE_769_" d="M60.663,26.192c1.193,0.509 2.189,1.494 3.049,2.44c1.036,1.14 1.951,2.41 2.686,3.764c0.691,1.271 1.156,2.576 1.111,4.038c-0.041,1.296 -0.143,2.697 -0.714,3.883c-0.573,1.189 -1.685,1.876 -2.782,2.526c-0.721,0.428 -1.457,0.839 -2.133,1.336c-0.638,0.469 -1.221,1.004 -1.828,1.51c-1.009,0.841 -2.058,1.466 -3.412,1.36c-1.411,-0.111 -3.068,-0.912 -4.434,-0.208c-1.796,0.925 -1.014,2.904 -0.296,4.277c0.24,0.459 0.731,1.156 0.547,1.711c-0.199,0.601 -1.119,0.774 -1.65,0.863c-1.3,0.218 -2.577,0.008 -3.828,-0.357c-1.291,-0.376 -2.678,-0.809 -3.783,-1.6c-0.592,-0.424 -0.927,-0.934 -1.02,-1.66c-0.045,-0.352 -0.056,-0.71 -0.15,-1.055c-0.106,-0.393 -0.328,-0.732 -0.568,-1.056c-0.495,-0.666 -1.168,-1.323 -1.159,-2.212c0.008,-0.787 0.397,-1.554 0.668,-2.276c0.543,-1.448 0.839,-3.047 1.625,-4.393c0.358,-0.612 0.905,-1.047 1.346,-1.592c0.44,-0.546 0.66,-1.196 0.832,-1.866c0.397,-1.542 0.561,-3.165 1.218,-4.629c0.624,-1.392 1.748,-2.414 3.104,-3.081c1.507,-0.74 3.189,-1.101 4.835,-1.379c1.613,-0.273 3.258,-0.477 4.891,-0.585c0.633,-0.043 1.253,-0.009 1.845,0.241Z" style="fill:none;fill-rule:nonzero;stroke:#3a54f5;stroke-width:1.07px;"/><path id="POLYLINE_768_" d="M39.548,81.424c0.78,1.046 1.556,2.095 2.296,3.17c0.683,0.991 1.293,2.023 2.065,2.951c0.765,0.921 1.622,1.751 2.553,2.504c0.978,0.791 1.977,1.591 3.027,2.283c0.558,0.369 1.176,0.724 1.867,0.628c0.747,-0.104 1.289,-0.463 1.727,-1.07" style="fill:none;fill-rule:nonzero;stroke:#3a54f5;stroke-width:1.07px;"/><path id="POLYLINE_767_" d="M53.696,87.08c-0.283,-0.614 -0.983,-0.971 -1.53,-1.319" style="fill:none;fill-rule:nonzero;stroke:#3a54f5;stroke-width:1.07px;"/><rect id="POLYLINE_920_" x="0.39" y="0.39" width="300" height="240" style="fill:none;stroke:#3a54f5;stroke-width:0.78px;"/><path id="POLYLINE_759_" d="M216.618,64.136l0,-35.545c0,-3.424 0.001,-6.848 0.001,-10.272l0,-4.912c0,-0.104 -0.051,-0.363 0,-0.456c0.05,-0.093 -0.036,-0.016 0.089,-0.061c0.192,-0.069 0.538,0 0.739,0l7.263,0c0.851,0 1.635,0.041 2.304,0.649c0.882,0.801 0.82,1.853 0.82,2.924l0,82.188c0,0.851 0.143,1.912 -0.199,2.717c-0.381,0.895 -1.262,1.485 -2.228,1.521c-1.634,0.06 -3.28,0.001 -4.914,0.001c-0.955,0 -1.967,0.13 -2.797,-0.444c-0.72,-0.497 -1.074,-1.294 -1.079,-2.151c-0.021,-3.568 0,-7.138 0,-10.707l0,-3.228" style="fill:none;fill-rule:nonzero;stroke:#3a54f5;stroke-width:1.07px;"/><path id="POLYLINE_760_" d="M204.968,102.89l7.014,0c1.442,0 2.832,0.105 3.868,-1.116c0.482,-0.569 0.75,-1.3 0.75,-2.045" style="fill:none;fill-rule:nonzero;stroke:#3a54f5;stroke-width:1.07px;"/><path id="POLYLINE_761_" d="M177.223,102.89l12.522,0" style="fill:none;fill-rule:nonzero;stroke:#3a54f5;stroke-width:1.07px;"/><path id="POLYLINE_762_" d="M87.854,99.729c0.001,1.664 1.36,3.084 3.024,3.158c0.772,0.034 1.551,0.003 2.323,0.003l56.254,0c1.371,0 2.632,-0.653 3.168,-1.975c0.152,-0.376 0.23,-0.78 0.231,-1.186c0.001,1.295 0.824,2.494 2.04,2.955c0.383,0.145 0.778,0.202 1.186,0.206c0.968,0.008 1.936,0 2.905,0l2.892,0" style="fill:none;fill-rule:nonzero;stroke:#3a54f5;stroke-width:1.07px;"/><path id="POLYLINE_763_" d="M152.853,65.95l0,-25.159" style="fill:none;fill-rule:nonzero;stroke:#3a54f5;stroke-width:1.07px;"/><path id="POLYLINE_764_" d="M152.853,99.729l0,-11.671" style="fill:none;fill-rule:nonzero;stroke:#3a54f5;stroke-width:1.07px;"/><path id="POLYLINE_765_" d="M201.143,47.533c2.265,-0.168 4.526,-0.391 6.762,-0.797c2.017,-0.367 4.098,-0.873 5.898,-1.883c0.864,-0.485 1.682,-1.116 2.21,-1.968c0.501,-0.809 0.582,-1.642 0.583,-2.563c0.003,-2.423 0.005,-4.847 0.005,-7.27l0,-3.96c0,-0.666 -0.008,-1.33 -0.14,-1.987c-0.343,-1.701 -1.497,-2.892 -3.054,-3.59c-1.894,-0.849 -4.043,-1.13 -6.09,-1.337c-2.312,-0.233 -4.636,-0.326 -6.958,-0.393c-1.913,-0.056 -3.826,-0.07 -5.74,-0.077c-3.047,-0.011 -6.094,-0.023 -9.141,-0.034c-1.798,-0.007 -3.596,0.008 -5.394,0.014c-2.542,0.01 -5.085,0.001 -7.627,0.029c-2.208,0.024 -4.42,0.07 -6.626,0.186c-2.238,0.118 -4.488,0.263 -6.694,0.684c-1.83,0.349 -3.921,0.895 -5.171,2.387c-0.942,1.126 -1.113,2.567 -1.113,3.983l0,8.785c0,0.807 -0.004,1.614 0.002,2.421c0.006,0.943 0.043,1.802 0.538,2.644c0.999,1.698 3.045,2.562 4.839,3.129c2.109,0.667 4.314,1.015 6.507,1.272c1.056,0.124 2.115,0.215 3.175,0.298" style="fill:none;fill-rule:nonzero;stroke:#3a54f5;stroke-width:1.07px;"/><path id="POLYLINE_766_" d="M31.64,46.502c-1.793,-0.408 -3.63,-0.918 -5.191,-1.923c-1.199,-0.771 -2.174,-1.897 -2.321,-3.361c-0.058,-0.571 -0.021,-1.16 -0.021,-1.735l0,-3.688c0,-2.373 -0.009,-4.746 0,-7.119c0.004,-1.38 0.284,-2.778 1.246,-3.824c1.186,-1.29 3.013,-1.827 4.673,-2.175c1.986,-0.417 4.016,-0.579 6.038,-0.712c2.041,-0.134 4.086,-0.178 6.131,-0.217c1.893,-0.036 3.786,-0.039 5.68,-0.046c2.609,-0.01 5.216,-0.02 7.825,-0.03c1.679,-0.006 3.358,0.011 5.037,0.017c2.468,0.009 4.935,0.01 7.403,0.028c1.896,0.013 3.794,0.063 5.689,0.14c2.03,0.082 4.064,0.197 6.078,0.465c1.815,0.242 3.734,0.567 5.353,1.466c1.334,0.74 2.209,1.919 2.477,3.422c0.107,0.592 0.117,1.19 0.117,1.79l0,3.378c0,2.526 0.006,5.053 0,7.579c-0.001,0.655 0.03,1.309 -0.151,1.946c-0.201,0.708 -0.612,1.334 -1.135,1.848c-1.288,1.266 -3.105,1.923 -4.81,2.398c-0.922,0.257 -1.857,0.451 -2.797,0.626" style="fill:none;fill-rule:nonzero;stroke:#3a54f5;stroke-width:1.07px;"/><path id="POLYLINE_901_" d="M237.835,70.39c0.022,2.581 0.398,5.135 1.183,7.597c0.768,2.413 1.907,4.704 3.362,6.776c1.481,2.109 3.292,3.989 5.346,5.545c2.039,1.545 4.309,2.77 6.718,3.631c2.383,0.852 4.898,1.335 7.427,1.432c2.586,0.1 5.185,-0.206 7.679,-0.9c2.44,-0.68 4.775,-1.734 6.899,-3.114c2.149,-1.396 4.081,-3.122 5.707,-5.102c1.633,-1.989 2.955,-4.231 3.907,-6.622c0.932,-2.343 1.509,-4.828 1.699,-7.342c0.196,-2.58 -0.008,-5.19 -0.611,-7.707c-0.592,-2.475 -1.561,-4.855 -2.868,-7.038c-1.308,-2.183 -2.948,-4.161 -4.85,-5.852c-1.934,-1.719 -4.139,-3.131 -6.506,-4.176c-2.306,-1.019 -4.769,-1.684 -7.274,-1.968c-2.557,-0.29 -5.157,-0.184 -7.682,0.317c-2.514,0.499 -4.947,1.387 -7.192,2.622c-2.219,1.221 -4.251,2.782 -6.002,4.612c-1.789,1.871 -3.286,4.017 -4.419,6.344c-1.108,2.276 -1.869,4.721 -2.244,7.224c-0.184,1.234 -0.268,2.474 -0.279,3.721Z" style="fill:none;fill-rule:nonzero;stroke:#3a54f5;stroke-width:1.07px;"/><path id="POLYLINE_902_" d="M87.854,40.791c0.002,2.614 2.478,4.052 4.65,4.842c2.571,0.936 5.335,1.337 8.044,1.625c2.79,0.297 5.597,0.442 8.402,0.521c3.166,0.088 6.334,0.083 9.502,0.1c2.921,0.016 5.843,-0.011 8.764,-0.027c2.626,-0.015 5.253,-0.071 7.875,-0.209c2.794,-0.148 5.593,-0.365 8.354,-0.831c2.555,-0.431 5.397,-1.012 7.518,-2.595c0.909,-0.678 1.637,-1.602 1.834,-2.742c0.156,-0.907 0.057,-1.924 0.057,-2.842c0,-3.326 0.016,-6.651 0,-9.976c-0.004,-0.961 -0.127,-1.939 -0.563,-2.808c-0.478,-0.954 -1.301,-1.652 -2.239,-2.134c-2.304,-1.184 -5.099,-1.423 -7.639,-1.632c-2.981,-0.246 -5.972,-0.299 -8.961,-0.355c-3.039,-0.056 -6.081,-0.032 -9.12,-0.043c-2.311,-0.008 -4.621,-0.012 -6.931,-0.004c-3.207,0.012 -6.414,-0.001 -9.621,0.036c-2.947,0.034 -5.894,0.115 -8.836,0.309c-2.581,0.171 -5.363,0.397 -7.769,1.422c-0.996,0.424 -1.931,1.042 -2.526,1.966c-0.529,0.821 -0.736,1.794 -0.783,2.757c-0.054,1.114 -0.012,2.237 -0.012,3.351l0,6.22c0,1.017 0.002,2.033 0,3.049Z" style="fill:none;fill-rule:nonzero;stroke:#3a54f5;stroke-width:1.07px;"/><path id="POLYLINE_903_" d="M87.854,99.729l0,-58.938" style="fill:none;fill-rule:nonzero;stroke:#3a54f5;stroke-width:1.07px;"/><path id="POLYLINE_904_" d="M24.106,12.89l192.513,0" style="fill:none;fill-rule:nonzero;stroke:#3a54f5;stroke-width:1.07px;"/><path id="POLYLINE_905_" d="M24.106,28.651l0,67.098c0,1.532 0.018,3.064 0,4.596c-0.01,0.874 -0.417,1.688 -1.169,2.161c-0.404,0.254 -0.861,0.375 -1.336,0.384c-0.777,0.014 -1.556,0 -2.333,0l-3.374,0c-0.442,0 -0.874,0.013 -1.3,-0.13c-1.023,-0.343 -1.682,-1.306 -1.705,-2.37c-0.023,-1.112 0,-2.227 0,-3.339l0,-81.07c0,-0.36 -0.021,-0.732 0.05,-1.086c0.212,-1.05 1.104,-1.868 2.169,-1.989c0.466,-0.053 0.951,-0.016 1.418,-0.016l6.703,0c0.186,0 0.651,-0.089 0.82,0c0.089,0.047 0.028,-0.004 0.057,0.126c0.042,0.186 0,0.43 0,0.621l0,11.426c0,1.196 0,2.392 0,3.588Z" style="fill:none;fill-rule:nonzero;stroke:#3a54f5;stroke-width:1.07px;"/><path id="POLYLINE_906_" d="M87.854,99.729l0,61.226c0,0.42 0.006,0.839 0,1.258c-0.015,1.088 -0.549,2.108 -1.478,2.691c-1.152,0.724 -2.781,0.486 -4.079,0.486l-54.646,0c-0.631,0 -1.235,-0.049 -1.813,-0.342c-1.065,-0.541 -1.712,-1.636 -1.731,-2.82c-0.022,-1.346 0,-2.693 0,-4.039l0,-57.8" style="fill:none;fill-rule:nonzero;stroke:#3a54f5;stroke-width:1.07px;"/><rect id="POLYLINE_1029_" x="127.854" y="147.89" width="100" height="60" style="fill:none;stroke:#3a54f5;stroke-width:1.07px;"/><rect id="POLYLINE_42_" x="127.854" y="147.89" width="100" height="60" style="fill:none;stroke:#3a54f5;stroke-width:1.36px;"/><path id="POLYLINE_30_" d="M237.835,70.39c0.014,2.633 0.415,5.248 1.232,7.753c0.783,2.401 1.933,4.679 3.395,6.737c1.435,2.019 3.172,3.82 5.135,5.33c1.997,1.536 4.228,2.766 6.592,3.637c2.494,0.919 5.134,1.439 7.791,1.528c2.58,0.088 5.174,-0.224 7.658,-0.929c2.455,-0.696 4.797,-1.765 6.93,-3.166c2.087,-1.371 3.961,-3.057 5.551,-4.981c1.569,-1.899 2.855,-4.034 3.799,-6.309c1.026,-2.475 1.655,-5.108 1.85,-7.78c0.188,-2.572 -0.025,-5.171 -0.63,-7.678c-0.606,-2.517 -1.606,-4.935 -2.952,-7.146c-1.292,-2.121 -2.9,-4.048 -4.758,-5.695c-1.85,-1.639 -3.939,-3.003 -6.187,-4.032c-2.413,-1.104 -4.998,-1.819 -7.636,-2.115c-2.54,-0.285 -5.125,-0.174 -7.631,0.323c-2.592,0.514 -5.101,1.44 -7.403,2.738c-2.156,1.214 -4.13,2.748 -5.837,4.541c-1.701,1.786 -3.136,3.823 -4.242,6.027c-1.186,2.366 -1.995,4.918 -2.385,7.536c-0.181,1.22 -0.266,2.449 -0.272,3.681Z" style="fill:none;fill-rule:nonzero;stroke:#3a54f5;stroke-width:1.36px;"/><path id="POLYLINE_6_" d="M24.106,12.89l-6.457,0c-0.752,0 -1.507,-0.015 -2.259,0c-0.575,0.012 -1.127,0.194 -1.576,0.559c-0.658,0.535 -0.924,1.3 -0.924,2.123l0,83.187c0,0.528 -0.006,1.056 0,1.583c0.011,1.012 0.567,1.939 1.513,2.345c0.491,0.211 0.991,0.203 1.514,0.203l3.902,0c1.342,0 2.84,0.228 3.768,-0.975c0.336,-0.434 0.519,-0.976 0.519,-1.525l0,60.831c0,0.352 -0.008,0.705 0.001,1.056c0.03,1.23 0.766,2.358 1.901,2.851c0.55,0.238 1.111,0.262 1.694,0.262l56.759,0c1.838,0 3.371,-1.278 3.393,-3.186c0.017,-1.494 0,-2.989 0,-4.483l0,-57.992c0.009,1.745 1.438,3.135 3.168,3.161c0.854,0.012 1.708,0 2.561,0l55.894,0c1.362,0 2.616,-0.665 3.146,-1.975c0.152,-0.376 0.23,-0.78 0.231,-1.186c0.005,1.022 0.505,1.996 1.343,2.586c0.785,0.551 1.634,0.575 2.551,0.575c1.645,0 3.317,-0.091 4.958,0c0.218,0.012 0.17,0.002 0.185,0.249c0.023,0.41 0.049,0.82 0.07,1.23c0.031,0.589 0.055,1.179 0.07,1.768c0.071,2.637 0.044,5.275 -0.043,7.911c-0.043,1.281 -0.094,2.562 -0.178,3.841c-0.048,0.723 -0.112,1.446 -0.163,2.168c-0.028,0.4 -0.083,0.853 0.047,1.242c0.173,0.522 0.751,0.631 1.229,0.732c0.285,0.059 0.723,0.055 0.98,0.185c0.113,0.058 0.067,-0.009 0.107,0.075c0.033,0.07 0.003,0.234 0.004,0.311c0.016,1.52 0.029,3.04 0.049,4.559c0.028,2.152 0.474,4.327 2.018,5.934c1.175,1.223 3.027,1.723 4.622,1.063c2.304,-0.954 2.588,-3.745 2.662,-5.91c0.041,-1.208 0.009,-2.417 -0.012,-3.625c-0.014,-0.814 -0.03,-1.627 -0.045,-2.44c-0.003,-0.129 -0.043,-0.324 -0.008,-0.449c0.037,-0.136 -0.014,-0.06 0.12,-0.156c0.202,-0.145 0.43,-0.225 0.62,-0.399c0.825,-0.757 0.83,-2.11 0.839,-3.147c0.011,-1.279 -0.07,-2.558 -0.017,-3.838c0.113,-2.727 0.908,-5.366 1.588,-7.992c0.13,-0.5 0.259,-1 0.377,-1.502c0.08,-0.341 0.157,-0.683 0.232,-1.026c0.037,-0.172 0.052,-0.7 0.169,-0.785c0.043,-0.032 0.226,0 0.277,0l11.756,0c0.108,0 0.328,-0.044 0.428,0c0.148,0.066 0.163,0.367 0.212,0.539c0.083,0.287 0.162,0.576 0.237,0.866c0.148,0.572 0.281,1.15 0.373,1.735c0.135,0.856 0.184,1.742 -0.013,2.593c-0.233,1.011 -0.811,1.935 -1.543,2.663c-0.748,0.743 -1.749,1.019 -2.551,1.677c-0.769,0.63 -1.498,1.471 -1.925,2.375c-0.424,0.896 -0.397,1.945 -0.038,2.859c0.1,0.255 0.253,0.464 0.378,0.702c0.116,0.223 0.037,0.536 0.023,0.796c-0.031,0.617 -0.032,1.234 -0.017,1.851c0.031,1.243 0.141,2.484 0.294,3.718c0.148,1.206 0.319,2.414 0.609,3.595c0.309,1.258 0.708,2.505 1.792,3.313c0.79,0.588 1.779,0.919 2.733,1.127c0.934,0.204 2.112,0.386 3.015,-0.033c1.122,-0.52 1.26,-1.993 1.34,-3.078c0.082,-1.095 0.053,-2.194 0.02,-3.29c-0.043,-1.44 -0.086,-2.879 -0.129,-4.319c1.28,0.043 2.617,0.053 3.887,-0.135c1.104,-0.164 1.879,-0.927 2.559,-1.764c1.608,-1.979 2.785,-4.43 3.433,-6.89c0.67,-2.54 0.561,-5.199 0.574,-7.802c0.005,-0.909 0.01,-1.816 0.015,-2.725c0,-0.063 -0.035,-0.332 0.01,-0.373c0.058,-0.053 0.414,0 0.489,0l7.745,0c0.392,0 0.773,-0.023 1.15,-0.138c1.068,-0.325 1.906,-1.215 2.163,-2.301c0.057,-0.236 0.085,-0.479 0.086,-0.722c0.017,0.876 0.039,1.665 0.666,2.349c0.508,0.556 1.202,0.808 1.943,0.812c1.558,0.007 3.116,0 4.674,0c0.807,0 1.72,0.12 2.477,-0.225c1.066,-0.484 1.465,-1.5 1.465,-2.594l0,-83.598c0,-0.728 0.077,-1.5 -0.251,-2.175c-0.891,-1.835 -3.166,-1.408 -4.826,-1.408l-197.83,0c-0.274,0.001 -0.548,0.001 -0.822,0.001Z" style="fill:none;fill-rule:nonzero;stroke:#3a54f5;stroke-width:1.36px;"/></g></svg>